<mxfile host="Electron" modified="2024-04-30T18:35:07.537Z" agent="Mozilla/5.0 (Windows NT 10.0; Win64; x64) AppleWebKit/537.36 (KHTML, like Gecko) draw.io/24.2.5 Chrome/120.0.6099.109 Electron/28.1.0 Safari/537.36" etag="_wpmD6_5CbssMmtnlZGT" version="24.2.5" type="device">
  <diagram name="Page-1" id="vGem_1BUXOahwtAB3zbW">
    <mxGraphModel dx="1434" dy="844" grid="1" gridSize="10" guides="1" tooltips="1" connect="1" arrows="1" fold="1" page="1" pageScale="1" pageWidth="850" pageHeight="1100" math="1" shadow="0">
      <root>
        <mxCell id="0" />
        <mxCell id="1" parent="0" />
        <mxCell id="Fy2nvLqnIeT0QVQOjHZ0-1" value="" style="rounded=0;whiteSpace=wrap;html=1;" vertex="1" parent="1">
          <mxGeometry x="55" y="100" width="740" height="460" as="geometry" />
        </mxCell>
        <mxCell id="Fy2nvLqnIeT0QVQOjHZ0-13" value="" style="shape=image;verticalLabelPosition=bottom;labelBackgroundColor=default;verticalAlign=top;aspect=fixed;imageAspect=0;image=data:image/png,iVBORw0KGgoAAAANSUhEUgAAAiIAAAG3CAYAAACJ9z5HAAAAAXNSR0IArs4c6QAAAARnQU1BAACxjwv8YQUAAAAJcEhZcwAADsMAAA7DAcdvqGQAAIvFSURBVHhe7Z0HgCRF9f9rL8BxZJCcfuQoSQEByVEBSYIESYKICAgICIKgZFQyf4IKiEpGRAkKkiVIECTnnHNOd9ztv781XTuvXr/q6Zmd3Vlmv5+6781u96tX1WFn3lS97u7pzXCEEEIIIR1gRP5KCCGEEDLoMBAhhBBCSMdgIEIIIYSQjsFAhBBCCCEdg4EIIYQQQjoGAxFCCCGEdAwGIoQQQsgw59lnn3VLLrmkO+KII/Il1XnttdfcIYcc4tZaay335S9/2a222mrusMMOc2+//XZuUQ4DEUIIIWQY8+abb7pdd93VffLJJ/mS6jz//PNu0003dRdccIEbM2aMD0JGjhzp/vznP7uNNtrIvfLKK7llmi9cIFIlarvtttvcDjvs4JZffnm31FJL+Z108cUXu9S92z7//HN34YUXuk022cQtvfTSbtlll3U77rij+89//pNbEEIIId3HI4884rbaaiv31FNP5Uua46c//al744033O677+4uv/xyd9JJJ7mrr77abbHFFn6k5OCDD84t03yhApEqUdu5557rg5C77rrLLbLIIm655ZbzO/iggw5y+++/f25VZ+LEiW6//fbzO+vFF190K6ywgltggQV8MLP99tv7AIYQQgjpJt577z3361//2m2++ebuueeec7PPPnu+pjr4nL3nnnvcPPPM4z+bAxgRwWfurLPO6m6++Wb35JNP5mtsvjCBSJWo7emnn3aHH364m2qqqdwll1zizjzzTHf66ae7q666ys0555zusssu8z9L/vKXv7grr7zSLbroou5f//qXO+WUU/yQ0llnneUmmWQSP8/18ssv59aEEELIF58//vGP7ve//72bbrrp3GmnneanUZrlhhtu8K9rrrmmGzEiDidGjx7t1lhjDf/z9ddf719TDPlApJmo7Xe/+50f4cC0ykILLZQvdT4qC8NDCDAkZ5xxhn9F9Db11FP7nwGmdbbbbjv32Wef+cCEEEII6RZmnnlmP62CaZTVV189X9ocjz/+uH9dcMEF/atmvvnm86+PPfaYf00x5AORZqK2G2+80b+uvfba/lWCKReMlDzwwAN+igdguOiFF15wM8wwg88N0ay77rr+NUR9hBBCSDew2Wabue9973s+wbRVkAMCZpppJv+qwWcrQA5JGUP+6bvI0fjggw/8tAx22Mknn+ynT7bddlt34IEH5la1/JEVV1zRTTrppO6+++5zPT09+Zo63/nOd9z//vc/PyoCW0zT7LXXXu7rX/+6n8bRYDRkiSWW8ENO9957r/fdX5BRjEua4KuVOTlCCCGtgTxAvK/ji+1gfcH8yU9+4p555pn8t/6Bz46PP/64qc8OzCYgcbQRqc/WMjAlgy/zSIXAZbuaW2+91Qc7WAebFEM+ENGkdtZDDz3kr3rBAbruuuvypTG77babzwM55phj/MjK2Wef7Y4++mhf76ijjsqtYnAFDaaHcNJiiqe/ILD59NNP898IIYQMNvhSiy+sgwE+X/D51CnwuYcrWhrRSiCyzjrr+CtZGwUiyMG89NJL86VFvlBXzZQRrqSZbLLJ/KtFGNH46KOP/CsiS1ClTrDtL8Efwr/Pxxc1oUVNHN9TTZ9XV2+pRiTl2qKRkXqqakJaIwoa1W+NbEqj+zSqTRodaZK2aJKJrWnSUk1aSWNa1GQta0yksQOgydugKQqarCVN2aKmaoOmbpOmKdXYUo3srY2Ut2N0u1nGZG0ussC8LQv1vZ8siMIHe1WF6ZGBYPLJJ/evGGWyCF+6g12KrhkRwSVEW265pZt//vndFVdckS+NwRAZ1v385z933/3ud/0VNccff7zbeuutk9c6r7TSSu7111/310fjst7+EqJjBB0fvpV94CpGiCkla3opMMLF66raltn1KJ+yLxppq+20H0m0fRXtQKmtWNeufRZtX0nb2keprfTZTD9LfFben/lroD0+43Vpy9i2bNt1e8W/kDrStny/p9F9qeqnmfbKbOX2NXP82rG9pXZqbdXjoJH1Sn3kAUKgzLZqXyy7f03yiHt3xMf+A7rsG3o7Ce/5CCYuOvPEfGnzbL7jj93Djz81YH1vZURkl1128bMF+Bz95je/mS+tc/7557tf/OIXbv3113fHHntsvrRI2TH9QhEirrJpjxC1jR071r+2Uqdd4M8Fbwpa+GALwptBStKuKduSUuiLKCN7RkRK2aHIdVqyWOuDdLG2K0hun7U+SNp5lZTSekLSztuWlGgb8XtCukT1lGTBH3NK0g7F8hUki9W/IJzDUpZNnxL+dWnUb1mkf90XKdl2QZlFZT/Z/83a1VTfHq3altSKtb6u2Kek0L61nbkiu+z/tGTbsE8XbZsSgo2ULPuUshrJYtlLYbs7Su/E1jUECVfLpO4TEpanrqoJ4Nh0BSFrN1wRY4GRDTDjjDP611AnldGLAAX5IUhWHcjhLUIIId1OL+6g2bpQf4ix6qqr+lfkXurJlfHjx/flawa7FF0TiEwzzTQ+sECuCLJ4NRMmTPA3PANhiqVqNDfXXHN1ZE6REEII6TQIKnAzUQg/B/AIlcUXX9zfT+SEE07oC0bweYvHsOA5M7hStFFaQ9cEIiBEXddcc41/lSB7F5cBY34tjIggwJh77rn9nVNxfxHNP//5T/+KHTkQNBrqt9YHSTttO8JPndSVLe0reqhWTrdIOxRpV1akXTO2ZUVum+8Z7BOqaqeLrKcl61nrg3SR21cQ1ucqK7peWQlDzpBcrktzPuuSQ/la0s5LtSEli+yzlrRDKbQhFPXFaLNPub0l6cP7yf5Pqapdo22SJbbVfuqSbWvp7bVsgmK/su1YoX+hWDZV1InplyBr+zsJPqN7eyf2Q7mjDoD7hSAHBAr3DgngytNpp53W51xi/R577OHvwYX8EFzFeuihh+aWaXC8ugbca2TUqFH+xmf3339/vtT5QAO3agdIrpEgMQfgzqpvvfWW/xncfvvt/mZquM07njlDCCGE9AtryqWqhijzzjuvf1QKknLxZR/Jq/gCh8/Wiy66qO+LfxldFYjgtu64QRl2Bq6gwcPvEHist956/lHFuKmLvusqlmHE49FHH/Xr8OCebbbZxl/7PG7cOHfkkUcm7xpHCCGEVANDIllA0aoGOEcE9xrBrditK2YwsoF1kHUztdlmm83fi+uWW27xswuYlYCf6aefPrcop6sCEbDTTju5U0891d+yHTeswdMBEbFh+OiQQw7JreogERWXLeHJvLhhGXYk5sFw51U8Y2aDDTbILdtPPExaU9mUQDSNIuy8RNFDtVK6WDZBsljrg3SxbIJk0dsnpbfPsgmKbEtKaT2lyK6kFLYRyxKSpVBPSJcw1GwpsjN8Beli9S9IDmVb6/vUoA1ZUn3WRbch+6IVtZ8tScmqG9S6bX17tGpbUi+WTV11n1abQdG2KhVss//Tqrcd+mcVaQdJ9Do5/aKlbVPKrKMisexTarQfyNDkC3cfkS864Zpy3ITs03dG50vr4EMwoP9w5DqN/OPFm1OKwh95J32qehK9rVVtdV8kzexPaVvqs5l+inVN7c/81aJ1n2W2dcrsdHul+yl/BeV22mca2X7V7dE01Z5YW/WYgDJb6bO07dJjG1O2L6ofhzR6HQKOFNK2zGczfSn3U8faD/+Y5GH3TofuI7LwfHO7i049Ml/aPJvv+jP3yJPPDGrfB4uyY0oIIYSQtjC0p2Y6CQMRQgghZDCwklCrqothINIhMBSJqQGZ9wFhODEI6yOVFAzdBpUVadeMbVmRdg1thQrbJyTtGtnKoutJ6XqWTZAsevsiYb1QWZH1ygr+KKXkOl2q+4yFQeuUIlvhX0sX3W+p2C6tQl+MdvuUWaTqSUk7rWZsU9uji7SrSfupK2rb2sZc0k6r6Fe2HSv0EcVaX0XtygORxbJPydoHQY32A2zI0APHhhBCCCEDSq9xb5Dq4tQMIYQQQloHcYQ15VJVXXxZCQORDoLhQz1dEEkVa8g2SBZrfZAulk2QLNb6IF3i4dFYcvus9UHSzquklNYTknbetqRE24jfE9IlqqckSxgqtiTtUCxfQbJY/QsqH8JWSvjXpVG/ZZH+dV+kZNte2dKUonr5MkvSTqtoX98erdqW1Iq1vq7Yp9VukNxWa32Q9hlLtg37dNG2KenpFynLPqWsRl+x1ldRq/tCEuqSoYk+XoQQQggZCDDF0qq6GAYihBBCyIDT69zECa2LOSKEEEIIaRnEEdZIR2XV3HQjDEQ6RU/2z88Lp4ucP67NIadLK3bN2JYVPU+rczOkqtrpIuvpS55lPWnnbbP/g4KvUOT2jcr8SEkfusi2pQ9IlpFK+GMLknYoVX3qEvezPheuJe28VBtSssg+a0k7lEIbQlFfjDb7lNtb9bRasSuqvj3WNskS22o/dRXat7Yzl7TTxH5l27FC/0KxbCxZ+R9Bln1KWY1kkXYauU7uB614P5T3zaoPjcg+xCEyNMGxI4QQQsiAkkVC1tUwVcWpGUIIIYT0C3PKpaK6GAYiHcQPXRrDtUG6WDZBsljrg3SxbIJkKQ6P1iWnRvT0iJxygCJbVeQ0ivQByXp6nZQu1nb1CetzlRVdr6yEIWJILtelOZ916emeaPg5+z+pptqruA1Ksi9aUfvZkpQK9bL/U6pqJ7dHq7Yl9WLZ1FX3KdvWirY1k2UTJH0WVW879M8q0q6R5PSLxrK3FNoNxbKpolb2g66nFaZgCsK63KZj4Pmy1khHVXXx82lxbAghhBBCOgIDEUIIIWQQ6O2d0LK6GQYihBBCyGBg5X5UVRfDQKRD+PlMP3+cLsW55nRpxU7byhwNnachczQgmfch7Qq2JaW0nlJkV1L09sl6WrIU6gnpgj+alCI7w1eQLlb/gqI58HyZKdWGPEb1lmrF6ntQbJeW7Jfvm2o/UmaRqicl7Zqzrfdfq7YldinaS5+xoratbcwl7bxt9n9asu1YoY8o1vqUZB6IlmVvKbNOFss+Jb0vpKrvh1iSVC5ISmRowmNDCCGEDDhZpGQloVYVL98lhBBCSMsgjrCmXCqr5qYbYSDSMfJhTmNoN0gXyyZIFr2ufIi+LmtKJEjaNbKVRdeT0vUsmyBZ9PZFwnqhsiLrlZUwrBsk1+lS3WcsPfwsFdkK/1q66H5LSTtdZHtWf4IKfciWphTVy5dZknaNbKtvT92uqNinbl9Kbqu1Pkj7tNutKfTRKpa9pVanX7RqrdaKtT4lax8EFfeFVEUfmHJJCesrKGxXZ8k6bD1Dpqo4IkIIIYQQ0n4YiBBCCCGDgTnlUlFdDAMRQgghZKDhnVWTMBDpILW55rjIfA45J61tpZ221cWen62pco6GsPMqKaX1hKSdty0pcvt0PSldonpKsuAPISVph2L5CpLF6l9QYR48+z+phH9dGvVbFrOdXFG/RNsF5fZWPa1W7Gqqb49WbUtqxVpfl/ZZV6F9aztzRXbZ/2nJtmGfLto2JZ0HImXZp5TVSBbL3pLcD5Ck0b6Qkj7M/I+g3L6K5PbIUl/fYayRjqrqYnBsCCGEEEI6AgMRQgghZDCwplyqqothINIhakOSPcbwb7pUtlOypkWCqtrpIutpyXrW+iBd5PYVhPW5yoquV1bCcC0kl+vSnM+65NCzlrTzUm1IySL7rCXtUAptCFl9Coraz5akVKiX/Z9SVbtG2yRLbKv91CXb1oq2NZNlExT7lW3HCv0LRWLZp9Tq9Isk9CEUy96S3napeD9oNeFHTL9otJ+U5LahSCLbRDuDCnNEkuAYEUIIIYR0BAYihBBCyCBgPVW3qroZBiKEEELIgNPPqRneWZUMBLU56bjoOWspWez52ZpkjkbDPA1pW1JK6ylFdiWlsI1YlpAshXpCuvj54YQiO8NXkC5W/4KiOfB8makGbciS6rMuug3ZFy3dfqTMopKP7P/WbOvbo1XbknqxbOqq+7TaDDK3MVfBNvs/rXrboX9WkXaNJPNAtCx7S5l1slj2KbWyH7SkD+8n++xMCusrSG6PLpZ9n0RboT8dx7ost6q6GBwvQgghhJCOwECEEEIIGWh41UwSBiIdxA8tFoaK00UOj1pTIkHSrpGtLLqelK5n2QTJorcvEtYLlRVZr6z0Dcvmkut0qe4zlhx61opshX8tXXS/pWK7tAp9MdrtU2YRNFIp8pH9n5K0a2Sb2h5dpF1N2k9dsm2N3FZpp1X0K9uOFfqIYq2voqE0/aIl94Omsg8xHeKFZS2o8vbp9oSifuXCzx3FmnKpqi4Gx4YQQgghA4010lFVXQwDEUIIIYR0DAYihBBCyECDHA9ryqWysvpdCgORjtGTz1/HRc7TalXO0RB2XiWltJ6QtPO2JUXOz+t6UrpE9ZRkwUmbkrRDsXwFyWL1L0jONdfmm207r4R/XRr1WxbpX/dFSrbtlS1NKaqXL7Mk7bSK9vXt0aptSa1Y6+uKfVrtBhW2Vyiyy/5PS7YN+3TRtinpPBApyz6lrEZf0Vj2luR+aHZfSEU+RB5GQbl9kESvk9uni7TTyPZkv7TKfHQMa8qlqrqYIXWMCCGEEDK8YCBCCCGEDDi99khHVfHOqqTd1IYP9dBotgTDyglVtdNF1tOS9az1QbpYw+F9wvpcZUXXKythiBWSy3VpzmddelhXStp5qTakZJF91pJ2KIU2hKK+GG32Kbe36mm1YldUfXusbZIlttV+6iq0b21nLm0rFfuVbccK/QvFsrGkacf0iy6WvSVr+4Pi/VDu06ofJKdDrLpVJLcNxbLpk2xPKepXk+o4Zu5HRXUxQ+LYEEIIIV1NFkSZIx1VhfpdCgMRQgghhHQMBiKEEELIgNNbn2ZpRcwRIQMB5mxljkbDPA1pW1JK6ylFdqqM7BnRp8IcfbY+aGT2v5T0oetJn9IOBSdjSpGd8imli+ynVjzXbNt4NWhDllSfddFtyL5oRe1nS1Iq1Mv+T0naaWLb+vZo1bakXiybuuo+Zdta0bZmsmyCpM+i6m2H/llF2jWSzAPRsuwtZdZRsWyqqJX9AEmkD+8n+5xLCusrSG6bLgV7q51cum9S0odGruuBH6WOf5ZbUy5V1cVYx5IQQggh7YQ3NEvCQIQQQgghHYOBSKfoyf4ZQ+3RtImfEqmrNsBZK7peNOUhfHg/0i77v+o0iqynJUuhnpAuYdjUkrST2wOV+ZTbU+yn39WmIlvhX0sXq+9BsV1ahb4Y7fYps0jVk5J2zdrGsrdHF2lXk/ZTV9S2tY25pJ23zf5PS7YdK/QRxVqfkjXtEmTZW8qsk8WyT0nvC6nq+yGtwpQIllWQpvL2qfYkhb61KDkNY67P1FGsKZeq6mJwbAghhBAy0FgBRlV1MQxECCGEENIxGIgQQgghA41PVu2nuhQGIh0C86lWPocs8TxwLF3PsgmSxZqX7xPWC5UVWa+s4ASTkut0qe4zlp5fltK2kSq318Q2CFn9CZJte2VLU4rq5cssSbtGtnqbpGpbUivW+rpin7p9Kbmt1vog7VOi2w99tIq2TanVPBCtWqu1Yq1PSdJoX8Sq+9D1pHReRiSsryi5fbpEtlY7uaz+BUU+GkjmgWhJO4m1rCNYUy5VNQA888wzbp999nGrrbaaW3zxxd3aa6/tjj/+ePfRRx/lFtW5/fbb3fe//3237LLLuiWXXNJtsMEG7re//a378MMPc4s0Q+LYDAT/+te/3DbbbOO+8pWvuMUWW8ytueaa7rDDDnNvvvlmbhFz2223uR122MEtv/zybqmllnKbbrqpu/jii7MgNDu7CSGEkP5iBRhV1Wbuv/9+t8kmm7jLL7/czTDDDG7VVVd1H3/8sTv99NPdFlts4T744IPcsjEIOLbffnt38803u2mnndatsMIKbty4ce7YY4/1vl5++eXc0qYrA5GTTjrJ7bbbbu6uu+5yCy64oFt55ZXdp59+6v785z+7DTfc0D333HO5ZY1zzz3XByGwX2SRRdxyyy3nnnrqKXfQQQe5/fffP7cihBBCvviMHz/e7bnnnj7wOProo91FF13kPzevvfZat/rqq7vHH3/cBxFVuPvuu70tRuYPPvhgd/XVV7tTTz3V/fOf//SjLU888YTbd999S7/Ud10ggo3GThg7dqw777zzvPD7dddd59ZZZx0/InLEEUfk1s49/fTT7vDDD3dTTTWVu+SSS9yZZ57pI8KrrrrKzTnnnO6yyy7zPw8EcngzFDn8qqdfpKSdty0pclhc15PSJaqnJEsY9rQk7VAsX0GyWP0LKg7r2nZewr++JLjeGmyLfQ+SdiiFNoSifom2C8rtrXpardjVVN8GrdqW2CW21T7rKrRvbWeuyC77Py3ZdqzQv1AsG0t6+kVK20r0uqxGsmjblOR+0GpuX9SliaZE8HtFSeS2oVj2fRLtaWQ/zboJScqmXyoL9VA/+7lj+DyPif1QVr9NXHnlle6ll15yK664ott4443zpc6NGTPGHXnkkf7zE5+H77//fr4mzfnnn+9fMbqy9dZb+58BPqcwVYM2EKzceOON+ZoiOEZdxS233OIjL0zFLL300vlS5yaddFK31157+Z/vvPNO/wp+97vfuYkTJ7odd9zRLbTQQvlS52addVYf3YGzzjrLvxJCCCEto6dbmlEbueGGG/wrckI0mFrBrABGTfB52ojHHnvMv66xxhr+VfO1r33Nvw6rQGTEiNomvfrqq/5V8vbbb/vXaaaZxr+CsHOsA4J5LoyUPPDAA8ncEkIIIaQSflSkRbURTL0ApC5YzD///P41BBllTJgwwb9OOeWU/lUzatQo/4rZhxRdF4h8/etf98EIRj0wxIQkmU8++cRn9P7sZz/zNhguAgguEJxgtGTuuef2yyQjR45088wzj/+5ygEhhBBChjqvvfaaf51pppn8qwbJq+D111/3r2XMO++8/lXONEj++9//+te33nrLv1p0XSCCnXLUUUe5ySef3J1zzjn+siRcSoSM3vfee8+dfPLJffNY4WBgp2M+yyIckDfeeMO/tpPinHBPaR6IlC7WvHyfsD5XWdH1ygpOnCC5XJfmfNYl55a1pJ2XakNKFtlnLWmni27P6lNQ1H62JKVCvez/lKraNbdNsW2suk/Ztla0rZksmyDp026zptA/q1j2KZXlgVRVaDcUy8aStf1B8X7QasJP9gU5KayvILltuhTsrXZyWf0LKvhJSOeBSFn2ScHeUOhPR8GohjXlUlX5qAgupEA+RlVdcMEFvp4EX84BckIswnIkszYCV5gCXDlz0003+Z8DSIJFAizAVTQpcOy6DlyyiwAEQ0K4FBc/zzjjjO6dd97xOSEvvPCCtwsHY7LJJvOvFhgtAa1cV00IIYT0YQUYVZWDK0AfeuihyrK+RGO0vwpVbl+Bz9dtt93WffbZZ27nnXd2G220kb9q9Zvf/KbPs/zud7/r7cIUjUXXBSIPPvigj9CQpYv7gCAaxFUw119/vfve977nr53ebrvtfBAS8kmqwPuJEEII6TQYrVh00UUrK4zqSzBjABA8WCDYAbh6pgoHHnigv4QXsw+4Sdp//vMfN8sss/hZiW9961veBvmWKbouEMGluJiCQSSGe4IERo8e7fbbbz8/WoLLli699NK+gxF2ukU4UFUPSFX8UCGGs5XkUG1Z0cPisp6WLIV6Qrr4oc6EIjvDV5AuVv+CwvApZK3vU4M2ZEn1WReznVyyX75vqv1ImUWqnpS0a862vj1atS2pF8umLukzVtS2tY25pJ23zf5Pq9526J9VpF0jyekXLcveUmadLJZ9SnI/aFL7QUv6gKwphj5hfQXJ7dHFsu+Tak/3Tcqsb8iadgmy7FOSVO2nVXfwyTpoXpZbUaifgfQDfH5VFW4opsEMAUilHITckGBXhfXXX99deOGF7r777vMDAbgVBq6+efLJJ/362Wef3b9adP7YtBEEFP/73//8sBOSVjX4oF9llVX8zxg5CYk6ZVfEtHJACCGEkAgfh/S2rDwOaQvhahncd8siBA+pq2okuEIVdyYPKQ8aXCgCcAv5FF0ViOCWtJhCQcCRmgMLy3GNNC7jRTCCaRprJ+KypHDJ0QILLOBfCSGEkJawcj+qqo3gdu7gmmuu8a8S5FLecccdPj8SjzxpxL///W9/Z/IzzjgjX1IHX+TxuBXMSFi3yAh0VSAy/fTT++Di888/L2TvBm699Vb/GqZtyg4IbBHcYJ6NIyKEEEK6Adzwc7bZZvP30ZJX1WBWAfkeuFpm8803d9NNN12+pvblHVfsQPg5gEeoIGj529/+5nMwA0iRwE1E4fM73/mOv0loiq4KRJB8uuWWW/qfDz300L6btgCMbpxyyil+CGnqqafuu63tVltt5bN5TzvttGgn4v4jeEge2GWXXfxru4nnjmuSxZqX7xPWC5UVWa+s4GSQkut0qe4zljV/GxTZCv9auuh+S8V2aem+jMzaCSr0IbNISfqw1gdJu0a2qe3RRdrVpP3UpduXkttqrQ8q+pVtxwp9rHmMsewttZoHoqn1olYs+5T09ksV94VURR+9sSTSRyPJ7dNEtqo9Kd03SeSjgWQeiMayN5X3yZLup1lfSG/L4JJ12Mr9qKo2zs0g4fWYY47xr4cccoi/zHePPfZwa621ln8cCh4UG+5EHsDtLnAlDBRufQEwq3DAAQf4y3Px+YvREXxm4pk1yBVBmgSeNVMGjk1X8aMf/chfToR5KzzgDvcM2XXXXf0Oxj1EkHR64okn+tvYAtzWHTscIx9yJ6633nru+eef94k+ZUNKhBBCSEMQRyDXo1Vl/9rJMsss468sxTPY8MUboyO4OyouvcXVLuFijirgsxMPzfvyl7/s7rnnHn8TMyTV4ss8vuSn7lcS6OntwutSsUkhY/jRRx/1V75gagUP38FdVfEwOw2iwD/84Q/+umvkmOBOqwhiEMw0c5lvIxB5oo2RE0a5qT8uXlYlv8XgG2kKfNOSWN9+AtJPqV3+GmiPz3hd2jK2Ldt23V7Z0ZG2ui8SvaaZfS+Ra5pqr8RWbl8zx6+Z9iXxsU2j/Vc9DhpZr9RHb/X2qvalGR/N7AuJ9FPqo+SdWPel6vZpZL2y9sq3Naa0LxW3qcxHM/1M+QnLz57sIffqyI/9dDs+HwaD8J6/8AxTuvO+s2y+tHm2uvBO98gbtVSBwer7YNGVgchQph6IjHbTGIGI/BAo/yCJ11X94C5902jZZ5ldTOkbdvQBWGKXvwbKbaXPNHpbm9kmSeX21Nqqx6XMTvssbb/02NYp2w/NHYc0cp0ONiTaR5nPqn0p9xHTzL6QyFrNBBsSva7lfS3aT3tosi9t2KZ2BUWS2H+tgTPHPsxAZAhSdhwJIYQQ0hayYMi6Gqaq2j03M4RgIEIIIYQMNIgjMDLTsmpuuhEGIoQQQgjpGAxEOgTmPTFPX1C2Jqis6HplBQc5SC7XpTmfdWFbUpJ2XqoNKVlkn7WkHUqhDaGoL0abfcrtrXpa2laqql2jbZIlttV+6pJtQxK9vdpWKvYr244V+heKZVNFrVySC4V2rWLZW7K2PyjeD1hSpyk/2TfZPuH3FiS3DcWy6ZNsTynqV4uSl+Tq/BDLPqmsbpCmHf1EXkjQkMGacqmqLgbHixBCCCEDjXVZblV1MQxECCGEkIHG53lM7Ie6NxhhINJB9NAvJIseTpfSpW840lBkZ/gK0sXqX1A8dGrbeDVoQ5ZUn3XRbci+aEXtZ0tSKtTL/k9J20rFtvXt0aptSb1YNnXVfVptBkXbqlSwzf5Pq9526J9VpF0jyekXLcveUmYdFcumilrZD1rSh/eTfUYkhfW5NHKd3DZdpB0k0e3pvkmlfAC5Tk+/SEm7hoJ9Qlb/gqQPjVwnp1+0LL9kaGIdZ0IIIYS0G2vKpaq6GAYihBBCyACDUKJ34sTWVXPTlTAQIYQQQgaaXjG60YpQv0thINJB5BxwKPG8frr4+VEhuU6X6j5jWXOsQZGt8K+li+63VGyXVqEvRrt9yixS9aSkXbO2sezt0UXa1aT91BW1bW1jLmmnVfQr244V+ohirU9J0q48EFm0rUSvs/ZBUPX9kFYh5wHLWlDZ9kXS7QkV+taiWs4Dkcr7FCRpVz8b5YEEWXWxnAw9cGwIIYQQMtCYV8NUVBfDQIQQQggZDKwpl6rqYhiIdAg/dNjT40b2jIhUNlQ7MlsWpIseppeSJR6WjiWHNX3/sv+TSvjXRW+DXKeL9K/7IiXb9sqWphTVy5dZknaNbPU2SdW2pFas9XXFPnX7UnJbrfVB2mcs2Tbs00XbpqSnX6Qs+5SyGn3FWl9Fre4LTeQje+9PCusrSm6fLpGt1U4u2S+tyEcDyekXLWmnkeus/gVZ/QuKfDSSmH7Rkj41sY+iyNAEx4sQQgghA0kWRJm3bq8q1O9SGIgQQgghg4E15VJVXQwDEUIIIWQwsJJQq6qLYSDSMYw5YqUwjxyKzBXQkmVkVltKzo/L+VUtaedltBMki9X3IGmHUmhDKOqL0WafcnurnlYrdjXVt0GrtiV2iW21z7oK7VvbmSuyy/5PS7YdK/QvFMvGkpX/EWTZp5TVSBbL3pLcD1rN7Yu0opwC/F5RErltKJZ9n0R7mqhfTUhSlgfSlFA3l+yXllk3IUlZHoiW5atPop+SUJcMTXDsCCGEEDKQIDiyplyqKvvXrTAQIYQQQgacXmfeur2iujkSYSDSQbDz5RCuLsUh+nSRw9JyGFNL2kGjekb0qbn2av1vuA1KVp+CovazJSkV6mX/p1TVTm5P422KbWPVfcq2taJtzWTZBEmfdps1hf5ZxbJPqdXpF6nQbiiWjSVNej9oxX5kPS05fF8Q1leQ3DZdCvZWO7ms/gUV/CSkp1+kLPukYJ+Q7JfG9GVJTb9ISf+6jaKftLSfoBHZhziEnztG1j9zpKOqsn/dCo4rIYQQQkhHYCBCCCGEDAbWSEdVdTEMRAghhJABJwsmrMtyq6qL52YYiHQQP5+scgWkdLHnxmuK50NtG68Gbcji52MTiu3Skv3yfVPtR8osUvWkpF1ztvX+a9W2pF4kRXvpM1bUtrWNuaSdt83+T6vetib0F0XaNZLMA9GSdhq5LrNOFmnXSHpfSKX2g5auJynkEmBZBcnt0cWy75NqT/dNyqxvSNNqHohkMPpZlgciZfnqk+qnpOinlgtSkFGXDB1wnAkhhBAykCAQsqZcqir7160wECGEEEIGgd4soGhV3QwDkQ7R05PtfD9Eny7xsDSWFIcigyJbMQWgpUvf8Kchadfy3Vp1H7KlKUX18mWWpF0j29T26CLtiop96val5LZa64O0T7vdmkIfrWLZWyqbfmlGtVZrxVqfkrUPgor7Qqqij+x9Oimsryi5fZrI1monl+6bJPLRQHL6RcuyNwXbhNrVTzn9oiX9m3WDjP4FSR9aegpGYvnoOAgoWlUXg3OAEEIIIaQjMBAhhBBCBppejGxMbF2o36UwECGEEEIGA2vKpaq6GAYiHQTz0Pa8eE1yLhSybPoU5Saki5+PFZLrdJH+dV+kZNsFZRaV/WT/N2tXU317tGpbUivW+rq0z7oK7VvbmSuyy/5PS7YN+3TRtinpPBApyz6lrEayWPaW5H6AJI32hZT0Ief8C8rtq0hujy6WfZ9Ee7JfWmbdhKz8jyDL3pJmIPpp5X8EWb6DpA9N9X5m7aQkfGhJH0OCrE9mgFFV2b9uxTo/CCGEEEIGBQYihBBCyCDQ29vbsroZBiIdBMPScvhQqzCEbUwFBMkShkItSTuUQhtCUV+MNvuU21uSPryf7P+Uqto12iZZYlvtpy7ZtpbeXssmKPYr244V+heKZVNFQ2n6RSreD1pN+Mnef4M02k9KcttQJAV70Z6W7Jem4CchPf0iseyTyuqmJPtp1q2i7INPSiL9N2xD9U1K+tC0Mv2iZfUHyzuKNeVSVV0Mjg0hhBBCSEdgIEIIIYQMNBhZskY6qkqNTHUTDEQIIYSQQcC6dXtVdTMMRDpEfR7TmkPPVchNSBccyCC5XBfdRuiHpaj9bElKVt2g1m3r26NV25J6sWzqqvu02gyKtlWpYJv9n1a97dA/q0g7SKLXyTwQLW2bUmYdFYlln1Ir+0FL+vB+svfYpLC+guS26WLZ90m1p/smZdY3pPNApCz7pGCfkNW/IOlDI9fpPBApy29Q5COTpLl+Zm2lJHxoYh8lMrar46MKCChaVReD40UIIYQQ0hEYiBBCCCEDDQY1JvZDXTwowkCkY+RD2MZUQJAufUOOhmK7tOSwph/aNNrtU2aRqicl7bSasU1tjy7Sribtp66obWsbc0k7raJf2Xas0EcUa30VtWv6RRbLPiVrHwTJ/aCp7CN7Q42EZS2o8vbp9oQKfWtRcvpFY9mbyvsUJGlXP6NpCkVl/6qfUtIHJCmbftHSfqRkXzRy+6y6nSTbLDP3o7JqbroS61gSQgghpJ0gksgCipaV/etWGIgQQgghpGMwECGEEEIGAyv3o6q6GAYiHaSWm5AuODhScp0ucu7emhsN0rkRsp5WVC9fZknaaRXt69ujVduSWrHW1xX7tNoNktuqieyy/9OSbcM+XbRtSjoPRMqyTymr0Ves9VUk90Oz+0Iq8tFbotw+SKLXye3TRdppZHuyX1rSh/aj18k8EC1tmxRsE7L6F6T9SPQ6mSehZfkOin2kZdUNKuSBSCk/kqKfEhnbFSR9SEIf9PLBxcj7aELdPDeD40oIIYQQ0hEYiBBCCCEDDQY0rCmXqureAREGIp2iNnzYaKg7LvZQeU1ySFJORxSU21v1tFqxK6q+PdY2yRLbaj91Fdq3tjOXtpWK/cq2Y4X+hWLZWLKmXYIs+5SyGski7TRynbX9QfF+KO+bVT8oGnrH7y1IbhuKZdMn2Z5S1K8W1fL0ixbq5tK0o59l0xNaZv2gyv2sTXOYEj60pA8t3RdJc9uX96Ogot9OYE25VFU3MxSODSGEENLdIJawRjqqqotjEQYihBBCCOkYDEQIIYSQQaB3YuvqZhiIdBDsfDkfroueu7fmRIOi3IhsSUqFetn/KVW1w3akVNuSerFs6qr7lG1rRduaybIJkj6Lqrcd+mcVaddIMg9EY9lbCu2GYtlUUSv7AZJIH95PPt9vCusrSG6bLgV7q51cum9SBT8J6TwQKW0r0eus/gVZ/Qsq+ElJ5UlIaZ+Sop+0tB8pmW+hqe6jRMZ2BWk/EtmvmpTfXFbdjoCAolV1MThGXcnbb7/tjj76aLfOOuu4L3/5y26ZZZZxO+64o7vjjjtyi5jbbrvN7bDDDm755Zd3Sy21lNt0003dxRdf7HqzPwRCCCGkX2QfJdZIR1Whfrt55pln3D777ONWW201t/jii7u1117bHX/88e6jjz7KLapz5513up133tktt9xybrHFFnOrrLKKO+CAA9xzzz2XW6TpykDkqaeect/61rfc2Wef7caPH+93yGyzzeZuueUWt91227lrr702t6xx7rnn+iDkrrvucosssojfkfBx0EEHuf333z+3IoQQQrqD+++/322yySbu8ssvdzPMMINbddVV3ccff+xOP/10t8UWW7gPPvggt2wMvrRvu+227qabbnKzzz679zVq1Ch36aWXuo022sjde++9uaVN1wUin3/+udtrr73cG2+84bbffnv3r3/9y51yyinusssuc0cccYQf4UBwMW7cOG//9NNPu8MPP9xNNdVU7pJLLnFnnnmmPxBXXXWVm3POOX09/DwQ1Iai05LDkZCekoiUWaTqSUm75mxrJ4sleEmVor30GStq29rGXNLO22b/pyXbjhX6iGKtT0lOv2hZ9pYy62Sx7FPS+0Kq+n5ISw67e2FZBWkqb59qT1LoW0VpyqZfKivvX5Dum5RZ35CmbHpCyvLVJ9VPSdGPnOJQUn6kpA9N3Bf4sSV9aJn96VPchkT6GDJgZKNVtRF8Qd9zzz194IGZg4suusiddNJJ/kv66quv7h5//HF37LHH5tblYPYBn60jRoxwJ598svvLX/7iP3OvueYaH5ygDXypL0Mfuy88CDwee+wxPxWDYaGRI0fma5z79re/7VZaaSUfdDz88MN+2e9+9zs3ceJEP22z0EIL+WVg1llndQcffLD/+ayzzvKvhBBCSCtk8ZY55VJZWf12ceWVV7qXXnrJrbjiim7jjTfOlzo3ZswYd+SRR7qxY8f6L+bvv/9+vibN3Xff7T755BO35JJL+qmdAD579957b//65JNP+oAlRdcFIv/4xz/860477eRfNb///e/d9ddf73cauPHGG/2r3IGBFVZYwQctDzzwgHvzzTfzpYQQQsgXlxtuuMG/Wp970047rU9PwKgJ0hkagZEQgFmICRMm+J8D7733nl82evRoN8UUU+RLi3RdIPLggw/6VwQa7777rjvvvPP8yMahhx7qp1jkjkJwgSht0kkndXPPPXe+tA4iuXnmmcf/jFEWQgghpFXMkY6KaieYegELLrigf9XMP//8/rXK595Xv/pVN/nkk7vnn3/e7bfffu7ZZ591n376qc9B2W233bzNNtts4yaZZBL/s0VXBSLI+8BwEwKLhx56yK277rrul7/8pbvwwgt9QipyRzbbbDP3+uuve/vXXnvNvyJRp6fHnknEOoBor53U5j4xYx7PZUoV8iOypSlF9fJllqRdI1ucHEG12X27SLuiYp+6fSm5rdb6IO3Tbrem0EerWPaWWs0D0aq1WivW+pQkjfeFVN2Hridlzfv3CesrSm6fLpGt1U4uq39BkY8GknkgWpa9KdgmpPsmMX2lJPIktFL+QewjLelDS+dbSJrzUyKxPRrpQxP3TfkUkj60Yh81dRorwKiqdhI++2aaaSb/qgmfe+GzsoxpppnG54ZMN9107oorrvBXqi6xxBL+s/aJJ57wn8E//elPc2sbHMuu4cMPP/SvyPlAJIacDyTO3HPPPe6CCy7wl/EiQNl11129Dea1wGSTTeZfLRDUgFYuZyKEEEI8iIOyLzKtq+YGV3TiapeqwmefJnz2ISfEIixHomkVMLKy/vrr+y/0iy66qFtjjTXcHHPM4UdGzjnnnL6ZihRdFYiEK2Ewt4UrXpAPguuZMWyEe4Pgct4vfelLPufjuuuu65vbqgLvJ0IIIaTT4MMdX6iryhrNlxdxlFHlc+/FF1/0ox+4VBefsXg99dRT/YUjuGAEV6bi9hhhFMaiqwIRObKx9dZb++uYJVNOOaW/vwi4/fbbfYACcGBTfPbZZ/4VWcTtJotxo+mIgjILKdin1IpdTbWTwFIYVkex1telfdZVaN/azlyRXfZ/WrLtmNDfULRtSnr6RUrbSvS6rEayaNuU5H7QarQvpGQ9TTT0jt8rSm6PLpZ9n0R7sl9aZt2EJK1Ov2gGup9yqgKyfAdZvvok+qmJfdSnJQoSPrSkD0hS7At82dJ+pMw+9anuX9OKjyDU6STWlEtVBTBagVGHqgrTLJLw2Rc+3zThM7HK5x5ugPbyyy+7H//4x/6GoAGMjuAWGhtssIG/+gYjIylwbLoGZOWGhBjcVMUiLEeSapgfK7siJsyRzTjjjP6VEEIIaZ6eLKBoXSGMmnfeef2oQ1Xh5mSa8HmWyn1s5nMv3K185ZVX9q8a3NwMlE3PdFUgguGmkO2bGgYKQcf000/vk2wQjGC+7IUXXvDLJbjCBsNKYIEFFvCvhBBCSLP09hZHOZpSVr9dhKtlkExqgft+gNRVNRJcogv0DEQgTAMhZSJFVwUiIERff//73/2rBPNdN998s/952WWX9a/BHneB09x6663+NrcY3uKICCGEkG6g7HPvnXfe8aMcuFBDTrWkmG+++fwr7s9lEe5FgsenpGhLIPLvf//bzxPhfh24jjilRpfwtAMMQ+EmZHiIHW7VHpJt8Ipb2GJ4aK655vIP+QFbbbWVj+ROO+00f91zAHNehx12mP95l1128a/tpaeWG4HXhMJgXJBlE1TVDgdcKszvW0XaaaRP2bZWWR6IlvQp29YK/bOKZZ9SWR5IVYV2Q7FsLFnbHxTvB60m/OTz/aawvoLktqFICvZWO7lkvzQFPwnpPBApyz4p2CfUjn5auRJB0j9k1g8y+hek/UhFeRJG3SCrbpDZnyC1TZKin7wfppRfIe1HSvrQSB+SnswW6jS92XtNq2ona665pn/+Gm7oKa+qQW7IgQce6K+W2Xzzzf0luQGMaOCKHUiObuAzFJx44on+eW0SPIMGV67ihmbBzqIn+4Bu+eigMz/4wQ984mfAcoekFSzH6yOPPJIvHTgw6rH77rv7nYqgA9MquIELngKI6Rjc1h1PGgzg6ppf//rXPiDBSAkiQUSEOBgIbHAddLvA5VTIZJ5s4hi30Li5sz+Y9Amm11S1LbMr/oFWt5XINtIeMrvsmEtKbcXasrab6XOpH/HHXb6taawP5xRyXdX9oNH+S/2U/GVLP81sn0TXK2uvfHvrlPal4vaAMj8D3U/94SzR/gemn/WK7dhWTXPbl7Yta6Pq9mlSPrNPIP969BSPuxdGfeJHuZE/MRiE9/z5R452p0/Z+sj6Lh+87p6YML5tfUfQgDuQ43MSPpE/iYfTIT8EV5v+8Y9/7EtqBbg6BpflAlx1KvMwMQiB+3UB3CZj5pln9tM7eLovghA8i2bDDTf06y36FYj89re/dccdd5z/GXcmRX6G7LjFUUcdlf80sCDowIgIRkbeeustf9kunjODwMlKZMWO/cMf/uBPGARM2B5ceYOd18xlvo1gIJJG+ix/k0p70fVK/TAQ8TSzfRJdj4FIDQYidRiIDN1ABOALOh5Qh0f444s3Phu/8Y1v+Mtt9S3ZywIRgAfmnX/++X7WAff0CreKR7Cz8MIL51Y2/QpEcFkOoh7csXTnnXfOl5Iywkk5NgtEFh43T4M/uHhtVdvyP/DYS+kbTkmLco0ONiR6TdUP2dYDpBgZbGikbZnPtgU++atF9eMXUzXY0Mh1Le9r1Xb59qWJ+tKG7dEMRD+b+TCWtK+f6fbbEXy0vn0l/cpfLbTP1v3Y9YK/I6d4onOByIjR7rQp7DuZVuGHH77mnpjY3kBkqFB2TBuCCAlXnzAIIYQQQspBfNequpl+BSLIqeDVJIQQQkg5iCWs+4NUVs1NV9KvQARDRMjFKLszKSGEEEJIin4FIttuu61/GBySXUjzYF4UuQEpYb2UZVNX7WBCqJkq0q4m7acu3b5UuBwXstYHFf3KtmOFPqJY66soXI4bZNlYqrVqF8s+JWsfBBX3hVRFH9nXIimJ9NFIlbdPtSel+yYxfSUULsG18kMse1N5nyzpfpr1q6i3t0+ayv5V36SkD0iCHIdIRv0g7UfK7FNQ5e0T/ShI+RSSPrS0H4n2I8E4gZT2U1etLtrqGNlmmSMdFYX63Yo+rklwia4Wnu2yzDLLuDPPPNNnxl500UXupptuMm2DCCGEkOEIYrxW1c1UvmoGj9THZa39AfUffvjh/LfhibxqZpFx82SRYHqf6jVltjKixLfcFDrybKZ9ibxSptROrS2LfGW/y+xKfairZKr6aWafSfS6ZvaFJO5LGnzjTaH7Utbvyvu6pL3ybY0p7UvFbWpXP0v95K8W1khBQLbRrn5K8K1e0q7jIqm+fWm7Mv/NbJ+k3KfaLwk/wccRUzzhnu/QVTPz9UziTh49S760eXYf/4p7snccr5pBzNIfTZw4MfdEAD6Y8MeZEtbHqh0wS/AUirW+rtin1W6QnH7Riuyy/9OSbcM+XaSdRq7T0y9S0q6Rshp9RWPZW5L7odl9IRX5yN5Lk8rtq0huny7STiPbk/3Skj4aSU6/aFn2pmCbkNW/IO1HotfJ6Qkty3eQ9KGp3s+snZSED0hS9FMiY7uCtB8p2ReN9G/VDZI+ior9SCHYSEn7kUgfZGhT+Rg9+uijbREhhBAy7MjiJOvW7VWl4qyuYlCDRdzhlBBCCBluII4wn6pbVTU3XUm/AhHc7hV3Va0Cntmy8cYb578RQgghhPQzEHnppZf8A3IagdyQN954wz9emNSpzZvqPAKp2gEKknP8usS22k9dcs7Wt2/kfwRpW6nYr2w7VuhfKJZNFbUjD0QXy96Stf1B8X4o92nVD4pyAPB7C5LbhmLZ9Em2pxT1q0W1nAeihbq5NO3op86TkEj/DdsQ/dSSPjRRjoNRN0j60NJ9kejts+oHRX0pKG5DSvrQSB+a2Ecx/yNI+igq9iNl+er0uMLE7P2rVXUzla+awTNlDjnkkPy3Gv/973/dlFNO6Z9umwLuX3vtNf9Y/VlnndU/LGc4I6+a+fK4ebM/mPQJhj8mCT5cUkjbMp96DQKOFOk1cRu6nxLd5zLbUj/iD7EZH1X3mUauq7ofQOk25K8W+LAJNLN9kqb2dclfvfTScl+U/1b9DHQ/dfAh0cerHf3U4MM00LqPNHr7qvZFU9ZGO3zWggSb1vtVrHe4v2qm9rTZwb5qZl43iTu+p/jA1ars1fuie8oN86tm5ptvPjdmzBgffAThctwPPvggWqZ1zz33+JETBCTf/e53c2+EEELIMCKLi6wblVVVSTz2haepp+8+++yz7oorrsh/c/6OqhjlQMSXAsHK5JNP7h8DjEcCD3dCdDz5xDFu8XHzNYjo4+8aZbbym3npNxQ1AlJqW7I2/jZTzQ6Ubm/J8KOsV+pD9aXMttxPnar7QaNrlX3jrdrPlkd4VNtpL030pQ3bA9oxElDaXhOjHpL29TNdsarPgdm+kn7lr4F2+ZFkH6/5T0XaMpJidPpQjIiM7NCISO8k7jg3R760efZ2L7inerpzRKSpQESDm5x95Stfceeee26+hDSCgUgaBiI2ch0DkTrST2l7DERMGIgMbiAyDwKR3n4EIj0vuKe7NBApO08agnyPE088Mf+NEEIIITa1KZZWVR4OfrHpVyAy22yzuS996Uv5b4QQQghJYV0NU1XdTOWpmf322y//qXWQL3LMMcfkvw1P5NTMkuPmy2Lc9Ammo8SyKQK5ph1XwoDyYdW6bZmdXld1+kUj17U8PZG/BqruizKfpT7UX1YzfZNU3tclf8m6ny33RbTRqo/B6Kecrig9RvmrRXP9TBs340fSnu0r6Vf+atGMz3I/Ze232reSeomOhzqHTvGke65jUzOTul9/Pme+tHn2HfW8e7rns+GdIxIeetdKSkmoh9dHHnkkXzo8YSCS7kFVPwxEbBiI1GEgUoOBSI0hEYhMnNT96vO58qXNs9+o59zTI4Z5ILL//vv7QKK/HHXUUflPwxMGIukeVPXDQMSGgUgdBiI1GIjUGAqByNwIRMb3IxAZ/Zx7ZrgHIqQ9yEBkqXHzl/7B6cCg9M1BBB/lbyLptbovVT/wS980mgg8Sv2IvpTZlfuIqbov0laZXclfT6vbp5H12vWhVtqXJrZJMtj9lB/GmqpttN7PdEXts5ntlbS+ffV6Zf5b3r781aJdgUcrwQZI1Qtt/2KKpxiIDEHKzilCCCGEtAkrCbWqupm2ByJ4rozUuHHj3Pvvv+8ef/xxd8YZZ+RWhBBCyPDCerx/VXUz/Q5Ebr75ZrfZZpu5JZZYwt89FcNGUliOO6puuOGG7oQTTshrEUIIIcMLzLa1qm6mX4HIgw8+6HbddVf/+tlnn2U7qzepkSNHuq9+9at5TYL4FjsfeQopwUYKeSApRXbZ/2mFdouCF1ksG0vIA0nJsk8pq5Eslr0luR+0mtsXdWmQA9An/F5RErltKJZ9n0R7GtlPs25CEuSESFn2lYS6uWS/tMy6CUmQMyFl+Q6yfPVJ9FMT+whPeDUkfGhJH5Ck2Bf4sqX9SJl96lPdv0b60KR8aGXfz5OKfWjZ/iDtR4KcEClJab3s96DsLdKLDE1wDrTMH//4R/f555/7B+Lh/iDhLqvrrLOOO+uss9yRRx7ZF3zg9U9/+pP/mRBCCBlOYHrFyv2oqm6enulXIHL33Xf7kY6TTjrJT70gAJllllncCy+84FZYYQWfLYzgY6211nJ33HGHu/LKK/OahBBCyPBC5nw0q26mX4HIW2+95Z++O/fcc+dLajc+Q2IqklQB7j1ywAEH+J+77ZKj/lGbHsDplVLZ9ItW9SmHdLHsU2p1+kUqtBuKZWNJk94PWrEfWU/LGnLvE9ZXkNw2XQr2Vju5rP4FFfwkpKdfpCz7pGCfkOyXxvRlyZiiCJL+dRtFP2lpP1JyOF9T3UeJ1DZJtB+J7FdNyq+Q9iNV9CNV96HJPgr7pEn50JI+tPT0i5RlHxS3HSt7yxxyUzLWSEdVdTM4P/rFNNNMk/9U4//+7//chAkT3DPPPJMvcT5YmWuuudxjjz2WLyGEEEII6WcgMv3007s33ngj/63G7LPP7l+ffPJJ/xqYfPLJ3bvvvpv/RgghhAwfMJbUX3Ur/QpEFltsMffaa6+5f//73/kS5+aZZx6Hq2TuuuuufIlzn376qXvuuefc1FNPnS8hhBBChhfWlEtVdTP9CkSQoIqgY4899nC//vWv/RU0Sy65pBszZoy75JJL3GWXXebzRQ466CD34YcfRrkkBHOfmAPtSQrrpey8h6DawYTqmQjFIu0aSeaBaFn2ljLrZLHsU9L7Qiq1H7QK9bKvGElhfQXJ7dHFsu+Tak/3Tcqsb0jTah6IZCD6qfMkpCy/QaavoKb6mbWVkvIjJX1o4r7Ajy3pQ8vsT5/iNiT98SNl5WAE2b6C6j400odG5oFoZD27zZqyt8mkRmQnvla2mAxBrHOnMmussYZbb7313CeffOLOOeccfwXNZJNN5rbaaisflCBJFcEKrpZB0uq2226b1ySEEEKGF9bVMFXVzfQrEAHHHnusv18ILt0NT+fde++93cYbb+x/xojJiBEj3I477ujWXnttv4wQQggZTmBMaGI/VBxT6h76HYgA3C8EAUlg1KhR/nH/N910k7vgggt8Dsk+++yTryUAIZs1/SIVTzk0mnaoF41lb6nV6RdNrRe1YtmnpLdfqrgvpCr6yIfYgyTSRyPJ7dNEtqo9Kd03SeSjgXrgKyHL3hRsE9L9NOtXkZie0FT2r/omJX1AksKQvlE/SPuRMvsUVHn7RD8KUj6FpA8t7Uei/Uiy79mRtJ9YRV9B2o+UnH7RsuyDZNuaMPWSf++NkNMwkuC3s8gtbF6o363gPBowZpxxRp8zMt100+VLCCGEEELqtC0QwajHoYce6rbffnu36aab+mV46u4pp5zi3n77bf87IYQQMizpdW5iP4T63Uq/AxHcXXWbbbZxO++8szv//PPdf/7zH/fwww/7dS+//LIPRL7xjW+4++67zy8jhBBChhuIIya6npbVxXFI/wIR3MYdSai4ZwhuWIZnysw000z52sz5iBH+3iHvvfee22GHHdxLL72UryEAM352zkNQ7QAFydwEXbRtSjoPRMqyTymrkSyWvaUw6xlk74OgYv2gyEf215pUbl9Fcnt0sez7JNqT/dIy6yYUcj4sWfaWNK32U6LXyTwJLct3kPShqd7PrJ2UhA9IUvRTImO7grQfKdkXjfSvSfkoKvYjVcw0qEv7kWg/Eu1H0moeiJbMA9GSeSBaVjtQ6E+nsXtXTd2MPsea4txzz3WPPvqozwO55ppr/MPvZptttnytcwsssIC77rrr3FJLLeUv8T377LPzNYQQQggh/QxEcH8QjHrgZmaphNQpppjC/eY3v/H3GJF3YCWEEEKGE9ZluVXVzfQrEHn66afdvPPO6+aYY458iQ1GSfAwvFdeeSVfQkDjKYe4WDZVNJSmX6T09IukKT/5kLsedgfaT0py21Asmz6J9rSifrWoHvgRklj2SWV1U2pHP/X0hET6b9iG6puU9KGJhvONukHSh5bui6S57cv7YSpuQ0r7kZI+NNKHRg7oSx9FxX6kpA8tOfWipW0lun2Jnn6R6OkXiW7P6hPUk9WDOp3xGfe2OXUzOOdaZuLE6nHa6NGj/agIIYQQQkigX4EIRjqeffZZ/xyZMt555x33xBNPRPkjhBBCyHABYzF6uqUZdXYsZ2DpVyCyyiqruPHjx/sckTIOP/xwN2HCBLfSSivlSwghhJDhhRVgVFU3069ABJfu4vLciy66yO22227u6quvdh988IFf99RTT7l//OMf7rvf/a676qqr/OW9uNkZqYEZv9pcbLpgfVXJPBAty95SZh0ViWWfEmoG6TyQWMW6QdKH95N9HUgK6ytIbpsu2lai29N9k0r5AHIdpqtTknYNBfuErP4FSR8auU7nSUhZfoMiH5kkzfUzaysl4UMT+yiRsV1B0oeW7otEt2HVD9J+YhV9BdlZBDVJHxrpQxP5yDqXkrTTkm1r6TwQKZ0HImW1E6T7Jgl5IbXckKFB3Pvm1M1Y52Nlpp9+enfqqae6qaaayl177bVuzz33dE8++aRft/766/uH3919993+ibzHHXdcdI8RQgghhJB+BSLgK1/5ivv73//uH/E/yyyz+KftBiFQ+fa3v+0uu+wyt/LKK+c1CCGEkOFFb49zE/sh1O9W+h2IAIx0/OxnP3PXX3+9u+eee/xTd3G31VtuucXnh8w555y5JZFYUwJlkrRr+kUWyz4l/E2k1Or0i5QcdvfCshZUeft0e0KFvrUojBAHWesrKe9TkKRd/aw+PVEi1U8p7UdSGNI36gdpP1KyL5rq2yf6UVDchpT2I9F+JEU/cmA+lvYTq+gryPIVlJriANJOI9vWyOkXTavTL1Jy+qWa8sY7gn3r9qpC/W4F52ZbeO6559y9997rnymD+4s8+OCD7vbbby+IEEIIGY4gVGtV3UxPL+ZQ+gGmXY499lj35ptv5kvS9GThaHgg3nBlk002cQ899JCbauJkbsXxC5VGgmXrMAoiqeoHIwMpmulLWWyOkZBA6Tbkrxb4xitppm8Sub2lPkr+CnQ/W+6LaKNVH4PRT4wUBEqPUf5q0Uw/Jfpbdet+0lTfvnTjZf7b5ROjASla71tJvZKOt9qXshEIjIQEWu6X/KNSWOt+NuZZ98yIz9yiiy7qLr300nzpwBLe82ebMNbt8eHC+dLmOWmKR9xLIz8e1L4PFmXnbENuu+02d8ABB7g33ngjyg1JqZkboBFCCCHdAsIifUluM0qHXF98+hWInHXWWT7AwEPtzj//fJ8fgofglYnUwc4vk84DkbLsU8pq9BVrfRXhS4lUnAeiVa+niXxkf1lJYb2QRK+T26dLZGu1k0v2SyvykUmi1+FLWErSTiPXWf0LsvoXFPlopOzvNiXpUxP7SEv60MI36KSUH0nRT4mM7QqSPjSyLxrpX/rQkj6Kiv1IYVRASqL9SBr5kZL5FVqWfZBuXyrkgFiSeSBa0r9G9ksjcz40qXUpX4PNxGyntKpuBudtyyAPBJfm4hJeBCNjx47N1ww99thjD7fgggsmh7QwurPDDju45Zdf3m/Lpptu6i6++GIfaBFCCCHdxjPPPOP22Wcft9pqq7nFF1/crb322u744493H330UW7RmG222cZ/tjbS6quvntco0q9ABI/2x8Pspp122nzJ0AQBBW62luLcc8/1QQiu9FlkkUXccsst52/IdtBBB7n9998/tyKEEEJaB19rW1W7uf/++33+yuWXX+5mmGEGt+qqq7qPP/7YnX766W6LLbbouzlpI1ZYYQW3wQYbJBUGKBZbbDH/atGvZNX11lvPByO4bHeogogPOxs7GBx11FH+9wCu8MF2TDHFFO5Pf/qTW2ihhfzyl19+2W233Xbu+eef9xHiN7/5Tb+8v4TEpaknTuZWHr9QdgDSQ25lUaJeh2mIFNK2zGfZ4B+mXCQt+xFnWzPbJ9HbWuqn5OyWXlrui/Lfqh/Zz/LjkKbcf9zRltuovD/ThlV9aNq3fSV9y18tqvos91HWdqv9KqlX0ulm+lI2M4BplhQt963MZ8m6lM9Q56eTPNexZNVZJox1P/xokXxp85w2+cPulTYlq+LRLOuss4576aWX3NFHH+023nhjv/zTTz91e+21l/9M33LLLd0vfvELv7xVMAiAL/Tzzz+/vwN7atak7PxuyDe+8Q3/aH/cL2QoMm7cOPeTn/zEjRgxwo90WPzud7/zSbS4XX0IQsCss87qDj74YP8zcmEIIYSQ/mDdqKyq2smVV17pg5AVV1yxLwgBY8aMcUceeaQPGC655BL3/vvv52ua5/HHH3eHHXaYm3TSSd0JJ5xQmrrRr0AEH96IdPbdd1//PJnPPvssXzM0wEgGIlEEFLjrq8WNN97oXzE3psGQE25f/8ADD1S6PJkQQggZ6txwww3+1frcQ6oF0hMwatKfQYZf/vKXPibYfffd3XzzzZcvtakciGD+SAsjIq+99pp/zD9GHpZeemmf7GnZQkiIGSyQfHr22Wf7aZcNN9wwXxqD4OLtt9/2Edvcc8+dL60zcuRIN8888/ifH3vsMf9KCCGEtIJ1x9SqaicYrQBIIrXAAANo9XMPj33Bc+bmnXfeSg+7rRyIvPrqq6bee+89vx6pJnjUP4ISyy5oMEBwsd9++7mZZ565dI4LQRRAog5utmaBdQD3Smk3Vn4IDkgVhctTQ7FsLGnQg6DiZbhSsR9ZTws5AElhfQXJbdOlYG+1k8vqX1DBT0KYXk5J20r0Oqt/QbJfmoKflLK/wZSkf91G0U9a2o8U8gqCNNV9lMjYriDtRyL7VZPyK6T9SBX9SNV9aJAnEaRJ+dCSPrTCpamWLPuguO1YeDuUkujLcCW6DYnumyRcchskKVtX1edQAL3or9pF+OxLPYg2fO69/vrr/rUZEAecdNJJ/mdcrTp69Gj/cxmVk1X/+te/5j/1DzkfNVDssssu/nk355xzjlt22WX9sl133dVdd911UbIqIratt97aR39XXHGFX6bBSA/WYXoHtv1FJquuMq54lz286QTkzxp8IEvKbMv91EHAkUL7SFtmtiVnVKvbJ9H1ytor7Wf+Ckr7UnF7NIPdT3wgp6jqH7Tez3RF6bOZvkha3764XlkbLW9f/mqhP5Al0mfLPko6XbVtTeJ7meeLkJwKrHqdTFadecJYt+Mni+ZLm+fMyR5yr4782OdxYKShKptvvrm/Ckay8MIL+9xIPHZluummy5fWQWLpz3/+c7fuuuu6E088MV9aDaRpIOF1gQUW8CMjqS/5krJzPwIBRDs00OBSXMx/IX8lBCEpkMRalX5cXEQIIYS0BVzZgsCmqqzRfKQdVKGVzz2kRIAf/vCHlYIQUP2T+AvAE0884Y455hgf7f74xz/Ol6aZfPLJ/SsObIqQgDsQN2vDzi9TmIqwimWfEk6FlMqmX6R0PQm+7UbCsgrSVN4+1Z5E99Osb0iDL1NBln0l5f0L0n2TMusb0pRNT0hZvvqk+ikp+snaSkn5kZI+NHFf4MeW9KFl9qdPcRsS7UfSyI8URgJSKvqRqvvQSB+aMBVhjQjIenabNYVpF0t6+kVK+teS/dIK0yTNyvIVZNmXqdNYt26vqgBGRPAZV1VhmkUSPvtSF5iEz8RmP/dwuwvcn2Tqqad2a665Zr60Mdb5/4XlN7/5jd+xOFB4Bg7uGBeEyBBgyAm/X3jhhX3zY2VXxIQ5shlnnNG/EkIIIc2CMKi/ApiWwbRSVelpGRA+z1K5j61+7v3zn//0r5jSmWSSSfzPVeiqQCTctOy///2vv1ucVEiUvffee/3veJ1mmml8MIKbsr3wwgt+vQRJN7jhGcB8FyGEEPJFJ1wtg1kEiyeffNK/pq6qSYHcTIArapuhqwIR3BkVlxtZWmONNbwNklXxO+4mB3BZMbjmmmv8q+TWW2/1t7nF8BZHRAghhPQH60ZlVdVOyj73cOXrHXfc4W9rgdtxVOXzzz/3Mw/IP1lyySXzpdXoqkCkFbbaais3atQod9ppp/m5rQBu8Y67wgFchdNucF5h52tVzpNQgr+U4jwQrYo+ekuE9RUlt0+XyNZqJ5fVv6DIRwNhyjgly94UbBPSfZOYvlIy8iWCUv5B7CMt6UNL5xVImvNTIrE9GulDE/dN+RSSPrRiH1qxH4nOjZA08iOl/UhZORFBln2QbFsj80A0Mg9EI/1rZL80ZfkZZeva7XNEdoJC1nYPJlbuR1W1E+RvzDbbbP6GnhdccEG+tJYbcuCBB/rZBVxtI6+owQ3O8Aw2CD9rMIqC2QXcvAwPw20G/C0Ma3Bbd1xqhJEP3FsfD79D4IEboSHxBvNr1t3nCCGEkKogNLICjKoqhl2tgzxKXNiB10MOOcRfYox7fqy11lr+Nhd4QB0+FyW49wieuQaF+5BIXnzxRf9qJcc2YtgHImCnnXZyp556qr8z7H333eefwouEIEzf4CARQggh3cQyyyzjH0qHh99hBgCjI1NOOaXbbbfd/D24wpU1VcGNRAEei9Is/Xr6LmmecHObaSaOdWv064ZmaTDlIqnqB8PrKcp86HWYZklR6ke0X759aQp9adM2SQain9a0RKDlNir3M9122TnRTL9a376SvuWvFtJn6z7K6g2AT7UjWm2/bPrBmnYJNNM3iTVFEihbNyA+Eyds2Cf7jHzBPd3TmRuazZi952/9aes3NDt3zEPu9RHtefruUKPsb4YQQgghbcKacqmqboaBCCGEEDLAYKzGCjCqKj0O9MWHgQghhBBCOgYDkQ6CnV8mTGumVLwMV6oJP1mYHaTRflKqX4BbK5KCvWhPS/ZLU/CTEKaPpSSWfVJZ3ZRkP826VZRfrhokkf4btqH6JiV9aJBj0CejbpD0oWX2J6ip7cv7YUr5FdJ+pKQPjfShQZ5EkPRRVOxHSvrQCpekWtK2Et2+JFyOGySRl+Tq/JDS9jI/UhLkaFSV9iNl2VdRuBTXkt4XddXqdnpcIfSgFXUz+LshhBBCyABj3aisqroZBiKEEEII6RgMRDoEAtwwlCuF5UH2tEtQsW6Q9OH99JYI6ytITr3oYtn3SbWn+yZl1jeEEdaULPukYJ+Q1b8g6UMj1+npCSnLb1DkI5OkuX5mbaUkfGhiHyUytitI+tDSfZHoNiSN/MQq+grSUxJS0odG+tBIH5poOkLYacm2tezphpr09IuU1U6Q7JeWnAppJIn2IymrV7ZOT79I9L6QpPx1CvTCSkKtqqGxFQOD9TdFCCGEkDZjBRhV1c0wECGEEEIGAYxqtKpuhoEIIYQQQjoGA5EOgilNLZkHosHBCtL1pDCNGgnLWlCreSBShb61KEzzBmkse1N5n4Ik7eqnzJPQVPav+iklfUCSQm6BUT9I+5GSfdFU3z7Rj4LiNqSkDy3tR1L005uU9hOr6CvI8hWkcyOkpJ1Gtq1J5T4AmQeike1Z/QmSORTNyPIVZNlXkc4DkZL7oaiiryDTV76POgGOlHU1TFUVj3T3gL8vQgghhAwwVu5HVXUzDEQIIYSQQQCjGq2qm2Eg0kHkNExdtYNiqUdoRHZmJpXbB0n0Ojn9oou008j2ZL+0pA/tR6/rga+EtG1SsE3I6l+Q9iPR6+T0hJblO0j60FTvZ9ZOSsIHJCn6KZGxXUHaj5Tsi0b6t+oGSR9FxX6k5HQEJNF+JNqPRPu0piKCtK2Ubl/Knm6oSU6/aFntBMl+aeTUhaZs3YD4zE7SII3cD5pWfPbZG/5I59F/e4QQQghpMwiNJmb/t6pi2NU9MBAhhBBCBgEr96OquhkGIoQQQgjpGAxEOgSmKrHztbA8JUx79gm/tyCZA4Ji2fRJtqcU9atF+SlbIcumklA3l6Yd/WwuT6JEop9asY+snZSMukHSh5bui6S57cv7YSpuQ0r60EgfmtgH+mZL+igq9iNl+QqSeRE6N0LbSnT7Epn7AFn5H0G6DSndNymZQ9GMLF9Bln0VyZwNLb0vYhV9BVm+giz7mmp+Ow3OhlbVzeBvkRBCCCEDCIIJa8qlqro5GGEgQgghhAwC1o3KqqqbYSDSYXB+SY3Iwt6ksL6C5NSLLgV7q51cum9S0odGruuBn4SkHSTR66z+BVn9Cyr4SUlNT0hpn5Kin7S0H6nUUD6o7qNExnYFaT8S2a+alF8h7Ueq6Eeq6CtITkdopA9NyoeWNQ0RZNkHyba14imGWHr6RaLbkOi+SfQ0hKRs3YD4zE5SKYneF5LWfabrpdoiQw/8nRJCCCFkAEGYZF2WW1VxmNVdMBAhhBBCBgEEE62qm2EgQgghhAwCVhJqVXUzDEQ6CKYuMeUZCcsqSFOaByKl2pOgP1Jm/QrCVG2Qtb6S8v4F6b5JmfUNacryJKQsX31S/ZQU/WRtpaT8SEkfGtkXTfXtE/0oKN2G9iNp5EdK50ZIFf1I2f4g6UOTyosApfWyZUEy/0BL54FISf9asl9aOheiqixfQZZ9FemcDSlrf9RV9BVk+Qqy7Ouy2smFukpkaIK/WUIIIYQMIMjysHI/qqqbs0QYiBBCCCGDAEKJVtXNMBDpIBgpDEPJVSSnX3SJbOE3oR7vx1bko4F64CshaaeR66z+Bem+SSIfjSSmJ7RS/kHsIy3pQ0sO5UOS5vyUyNiuIOlDE/dN+RSSPrRiH1qxH4mekpA08iOl/UhZUxFBln1Qsf265LC/Rk6/aKR/jeyXRk5BaMrWDYjP7CQN0pTtl9Z9puuVtpf5sqZhUr7I0AB/z4QQQggZYKwk1KrqZhiIEEIIIQMMxmOs3I+q6ubxHAYihBBCyCCAYKJVdTMMRDoEpjex87UkMgcExbLvU3amBmnQVpBZNyEJplelLPtKQt1csl9aZt2EJGV5ElqWrz6JfmpiH1k7KQkfWtIHJCn2Bb5saT9SZp/6VPevkT40KR9aMi9CK/ahFfuRaD8SmRehcyN0PbvdmmT+gZbMA9HSbUjpvknJXIhmZPkKsuyrSOZsaFn7o66iryDLV5BlX5fVTi7UTcn0lSk7mbyy+mToof/WCSGEEDIAWLkfVdXNMBAhhBBCBoHa3UBaK90MA5EOgp0vp150wfpIYmhfCyOOKRX8JNQDPwlZ9knBPiHZL43py5IxRREk/UNm/SCjf0Haj5QcytdU91EitU2Sop96X4pSfoW0HynbV1Ddh0ZOR2hSPrSkDy1rGiLIsg+K21b7E3WFJHr6RaLbkOi+SfSUgaRsnfapbavKmiIJkpTtF+1TUu4zXa+0vcyPlKTUZ3ZCBQ0F0DtrpKOq4q3rLobIISKEEELIcISBCCGEEDIIWJflVlU3w0CEEEIIGQQQTrSqboaBSAcx80CksrNPClOnKZn1DWEaNSXLPiXJQPRT50lIWX6DtB9Jc/3M2kpJ+ZGSPjRR34ztCpI+tHRfJJF/LBA08hOr6CtI50ZI2b6C6j400ocmyosQdlp2mzXp/AMpnQciZbUTJPulpfMWqsryFaRtJWXrynM2yhT7lNI+pSz7uqx2cqFuSqavXNkJlZIkHNPu/0j/YqIOFyGEEELaDUIga8qlqro5hGIgQgghhAwC1tUwVdXNMBDpED2ZsPNHZGFuSrCRkvi6FYURySCNZW8q75Ml3U+zfhWJ6QlNZf+qb1LSByQpDOkb9YO0HymzT0GVt0/0oyDlU0j60NJ+JNqPpDAlUaqiryDtR8qaigiSdhrZtkYO+2vk9IumtL28T75fWd1WJH1oWfZVZE2RBMn9UFTRV5DlK0gj62lkexo5/aIp9ZmdUNb0C5DHVirVzuBSvydIK6Wbp5WMQ0kIIYQQMjgwECGEEEIGGIxnWFMuVdW94yEMRAghhJBBQU61NFu6GQYiHQRTlpg6TQkHp6p64Cshy94UbBOy+hek/Uj0OpknoWX5DpI+NNX7mbWTkvABSYp+SmRsV5D2IyX7opH+rbpB0kdRsR8pmRehpf1ItB9JwU/WwZS0rZRuX0rmH2hZeQJBVjtBVv+CSvMWStZJH5qyemXrynM26tK07rNer6i4zUiZr6RMX7myEyol65gGSWRbQwVrpKOqupnssBJCCCGEdAYGIoQQQsgAg3GZib29LWvojOu0HwYiHaQnEw5AK8IopJTEsk8qqxukQf+CzLpVlP0BSUmk/4ZtiH5qSR+aaDjfqBskfWjpvkj09ln1g6K+FBS3ISV9aKQPTewDfbMlfRQV+5GyfAXJ6Qg9JaFtJbp9iR72l+ghet2GlO6blDlNUEGWryDLvorkVImW3hexir6CLF9Bln1dVjs1SeR0iJ4S0T4levpFoo+tRLcXKbMta7MToAetqptRh5wQQgghZPBgIEIIIYQMAtat26uqm2EgQgghhAwwtSmW/pTuhYFIh8DUqrXzsSwIU5opSbuGgn1C6EdK0odGrtN5ElKW36DIB2T0L8iqH6TzCiIJH5rYR4mM7QqSPiCJ7otEt6H9SGk/sYq+gmRehEb60EgfGunTyocIknZasm0tKwchSOcKSOk2JLpvkrIcgrJ1A+IzO0mlJHpfSFr3ma5X2l7mJynlM1J2QqVkHdMgs51cGtmepK8ttS2DjXVZblV1M9mh6U7+9re/uW222cYts8wybrHFFnOrrLKK23///d3TTz+dW8RcddVVbosttnDLLrus+8pXvuK23nprd/XVV+drCSGEEDIQdF0g0pt9S/3JT37i9ttvP3fvvfe6eeed16288spu5MiR7q9//avbZJNN3O23355b1/jVr37l9tprL/fYY4+5pZde2i2xxBLuvvvuc3vssYc78cQTcytCCCGkVezcj6oaiGtnnnnmGbfPPvu41VZbzS2++OJu7bXXdscff7z76KOPcovqoM4pp5zi1l9/ff8ZutRSS/kv9Ndcc01ukabrApG///3v7oorrnAzzjiju/TSS90FF1zgTj31VPevf/3L7bLLLu6TTz7xO/7jjz/29rfddps788wz3WyzzeauvPJKd/rpp7uzzjrLXXLJJW7aaaf1dRGUDATY+VoYUQyy1lcS6gpJMDIpZdavopLpCSmzblBT/czaSkn5kdJ+pGRfNNW3T/SjoLgNKe1Hov1Iin7QP1vaT6yiryDLV1BqOgJIO41sWyOnAKyh+SDpX0v2S0sO1zcjy1eQZV9FeqpESu6Hooq+gixfQZZ9XVY7uVA3IY30qZHTLxp5bDVV2ytItBcL64q+BhO0LjM+mi/t5f777/dfzC+//HI3wwwzuFVXXdV/LuIzELMDH3zwQW7ZmNdff91tttlm7uSTT3bvvPOO+/rXv+4WXHBBd/fdd7vdd9/d/elPf8otbbJD1F0ggAAYFVlggQX8zwAjInvuuaebf/753ZtvvukDEICdDjAiMuuss/qfwUILLeTtAQITQgghpD9YuR9V1U7Gjx/vP98QeBx99NHuoosucieddJK79tpr3eqrr+4ef/xxd+yxx+bWjTnooIPcU0895b7xjW+466+/3v2///f//CAAvuSPHj3at/Hqq6/m1kW6LhCZaqqp/HQM8jw0PVmoP/fcc/ufEcF9+OGHPmLDjsLO12CYCnVuvvlmN3Fiu08FQgghZPDB6P9LL73kVlxxRbfxxhvnS50bM2aMO/LII93YsWP9l/r3338/X5MGIys33XSTm2uuuXyaw6STTpqvcX5kBP4xQ1E2s9B1gQgiMSSezjHHHPmSOhMmTHAPPfSQ/3mWWWbxERyWYVpm8skn98sl0003nfvSl77ko8bnn38+X0oIIYQ0D3IYW1U7ueGGG/wrvmxrkJKw3HLL+VGTW265JV+a5h//+Id/3W677dwkk0zif5Ycdthhvr111lknX1Kk6wKRMs477zwfBWJHf+1rX3OvvfaaXz7TTDP5VwvMnYE33njDv7aN7LzqMYQDEqSR6zDdmVJPtj6lyEcjZSd/StKnJvaRlvShJXMKdF5Bc35KZGxXkPShifumfApJH1qxD62iryCdGyHRfiSN/EhZORFBln2Qbl8qyj9QKs0VQN1cGtkvjcwb0JStGxCf2UkapJH7QdO6z3S90vYyX+3Ny8B+rB1XS7K9grA+IYluTyL9DQXQCysJtarauRWYegHI47BACgPABRyNePDBB/3rkksu6b+046KQQw891B1yyCF+VOWzzz7z68tQh657wZUyGDYCyB+ZbLLJ+hJW8XOKMMwUbAkhhJAvMo2+hIcv4EhhaMSzzz7rX9966y1/xQxuk3Huuef6HJEDDzzQrbfeen72oYxhEYhgWAhXzIwbN85ttdVWPrsXIIG1KswRIYQQ0h9k8mmzCuBDHVe7VBUCAg2uHgXICbEIy6t8AUeuJcAX/Kmnntr9+c9/dv/973/9vbxWWmkl98ILL7jvf//7fXYWXR+I4LKhH/3oR+7TTz/1Nzg7+OCD8zWuLy8E61KEYSUk77QTjIxi5zel3rpQPyWzbkKSsukJLctXn0Q/NbGPrJ2UhA8t6QOS6L5Imtu+vB+mbP9A+tCkfGjJ6Qit2IeW7Q/SfiRyOkJPSZTWy36XksP+WtbQfJBuQ0r3Tcoatq8iy1eQZV9FcqpEy9ofdRV9BVm+giz7uqx2cqFuSqavmiRl0yH62Ep0e5Jm2otV91eQsf2dBhMsrZYAPq+Q61hVVlpB1S/hVXJTwmckgpc//vGP/iaiU0wxhb/yFFel4upVpESEK1otskPZnXz++ec+6Dj88MP9aAaiNVxihKtgAmFYqiz/IwxNIeuXEEIIaQUEE1buR1WFYAQf+IsuumhlhWkWSfgSnsrfCF/Oq3wBD6kNGH2Zcsop/c+BUaNG+XuSAH0jUUlXBiLYiT/4wQ/chRde6A/aCSec4Hbeeed8bZ355pvP7ygMHVkH5O233/bzXtjRc845Z76UEEII6Qy4PQVu1llVIRCQhC/WqS/hzXwBn3766f3r7LPP7l81YTk+T1N0XSCCy3ExFYPLjnD5LaZm1l133XxtDBJRcfUMckfC5UwSPGsGQ1PhFvGEEEJIq8jLcZtVOwlXyzzxxBP+VfPkk0/619RVNZJgExJgNSHYCQGLRdcFIqeddpoPQjCkhPkq3D+/jG233da/4s5vzz33nP8ZPProo33PmbFGU9oBdn5B2fmWEiaVgjSmL0vZCZ2S9K/bKPpJS/uRkjkFmuo+SmRsV5D2I5H9qkn5FdJ+pIp+pOo+NDIvQpPyoSV9aFn5EEGWfVDcdqyy+ffSXAHUFZLovklK8whK1g2Iz+wklZKU7ZfWfabrlbaX+ZGSlPrMTqiU9LGV0u1FwvqENLI9jfSpabQfshOuo1hJqFXVTnA7d2A9Bwa3aL/jjjv8F/Xll18+X5om+MJN0pASocENQQEeKJvCOMxfXN577z1/S1mAIaUzzjjDP1fG0r///W9vh6fy4kqaV155xW2wwQY+6Nhxxx3dt7/9bX9AkFuCp/cSQggh/aG3H6WdrLnmmv5GnjfeeGN0VQ3SGnDJLa6W2Xzzzf2sQgA3OMMVOxB+Dnzzm9/00y94sj1uXiaDkYsvvtjPLEwzzTRuo402ypcW6elt95hPB8GD7Xbbbbf8t3IOOOAAt/322/ufsQswl3b++ef7ISlEgrihyw477ODWWGMNb9MukNCDTOYZJ4x13/100XxpHSPI76MsmJcRZVl0iZGBFFX9g9b7ma4ofTbTF0nr2xfXK2uj5e3LXy30yIBE+mzZR0mnq7at0d86Jfh2nKLlfpb5LFk3ID5L/gDK9kvrPltsr1WfJSda6bFtsT1NWfvlbeQ/KEKdH7z/hntiwnifxIn3/MEgvOdPMnESN8uns+VLm+eVMS+5cSPGta3vd911l9tpp5188AGfCCbwxHrkh+DLN2YU5B3HX3zxxb7Pw+uuuy7KCcFNzeALX95xEQhmIjDDgBunIU8Tswth5MSiqwKRLwI6ENF/UyXvKaUfQqXrxCFu2X/JWaJ9Vg02NFX71q5gQ1K27U1tX/5q0eoHfss+S3aGrMdgw2Y4BxuagQg+2h1saCwfnQxERmeByMyf1h+s2iyvjnnZjW9jIAIQKODR/XfeeacfBUFwgQfX4Us4LsGVlAUiALkgmIXAKAsecIdRENwqHrMMjXJNGIgMMgxE8h8MqvaNgUgdBiI1GIjYlPosO7EUDERapy8QmTCJm+nTWfKlzfPamFfc+JHtDUSGCk2cioQQQggh7YWBCCGEEDLg2DcqqyrU71YYiHQIjC5i5BCvUhIcnMrq7U1K+jfrBmX9SUn60MLQvpSkOT8lEtujiX3EfYmlfApJH1raj0T7kWB6Qkr7iVX0FaT9SGFKIiXLPki2rcHQd5AGQ/RBGulfI/ulwfB9kEaukz60pF0zwlRJSnI/aGmkT430qSmrV9oe+pdLU+ozO6GCNPLYasn2CsL6lER7WhLtUyL3g94Xul4srI/VSbBV8iqY5kv30uFDQwghhAwPJmZfpFpVN8NAhBBCCCEdg4FIB8EoIw5AZWVRcUrwlZL0oRmRBdpBVt0gOZRfkPChpf1IZL+8jO0K0n6kZF800r8m5aOo2I+UnI7Q0n4k2o9E+5EUpiSUrZRuX0oPd0tZQ/NBVjtBum9S5rB9BUkfGmmnKVtXPlVSl0b61JI+tSz7uuI2I6FuSqavXNkJlZJ1TIMkuj2Jbk+i25Non5Gs7Q+y7HNpGrat+jvYoPVW1c2ow0UIIYSQdoNgwkpCrapuDkYYiBBCCCGDgBVgVFU3w0CEEEIIIR2DgUgHwc4vlcqTkPQomfWDsqopSR+aKK/AqBskfWiZ/QlqavvyfphSfoW0HynpQyN9aKK8iFLFfqSkDy2ZF6GlbSW6fYmed5eU5gpkfpLtZX6ivmV1W5H2I2XZV5GVqxGk90Wsoq8gy1eQRNeT6PYkMvcBkpT6zE6oVG5E6bFV7UXKbJNS7UlppE9Naj+A0npGu3XV60kNDXoLj/ZvRt2cKZIdOkIIIYQMJAgjrCmXqureMISBCCGEEEI6CAORDoHRSOx8PT0hBZuUfF0hCUYipaz6QXo4P5LwoYl9lMjYriDpQ0v3RaLbsOoHaT+xir6C9JSElPShkT40kY+scylJOy3ZtpYc6tbSQ/RSVjtBVv+C9JC9pGyd9iMpq1e2rnyqJJakdZ9xvVhxe5EyP0mZvnJlJ1RK1jEN0sj2NLI9jWxPI30WZO2DIMs+l0S2rdsvq5edwEV1GIxrtFq6GeO0IoQQQki7sXI/qqqbYSBCCCGEDAJW7kdVdTMMRAghhBDSMRiIdBDkSWjkdCYOTlJZ1ZSkD0hSyC0w6gdpP1KyL5pW80BixW1IaT8S7UdS9IP+2dJ+YhV9BVm+glJ5EUDaaWTbGjnnrpG5AtK/luyXlswbaEaWryDLvop0zoaU3A9FFX0FWb6CLPu6rHZq0iRzGDKkT00qLwLIY6uR7RWUt2VKtFcU1tuSlO2L0npmm0FxPakCaDNIkLQfRHpRsvfElpWVbiU7zIQQQggZaKwpl6rqZhiIEEIIIYNAbVyjtdLNMBDpIHIUMQgHpE/ZuZeSVTdIDuUXpPxIin5K1AtftqQPjeyLRvqXPrSkj6JiP1J6SkKi/Uga+ZGypiKCLPsg3b6UHu6WkkP0WtK/RvZLI4frNWXrBsRndpIGaeR+0LTuM12vtL3MV1LCZ0HZCZWSdUyDzHZySXR7Et2epNxniVS9WFhvSyPrFcjaSUnWkyJDG+MUIIQQQkg7yb6juYnZf60q+9e1MBAhhBBCBoH6REvzpZthIEIIIYSQjsFApENgShM7v6As8A3SyOlQK5egT8KHlvShpfsiKcsD0TL71Ke4DSnpQ1PdB/pmK/ahZfuDtB+JzIvQuRGl9bLfpSR63t3KEQjSbUjpvknp3IGqsnwFWfZVJHM2tPS+iFX0FWT5CrLs67LayYW6CUm0T0lZboQ+tpJm2ouk2ouF9bY0cj9oSuuJ9jSynlZ2AqclKNQTyLb7+qDqDy72lEtVoX63gkNDCCGEkAFGTrU0W7oZBiKEEELIAINQwhrpqKpuDkUYiHQQjCRq6VFIqdRQPqjuo0TZyZ6S9iOR/apJ+RXSfqSKfqTqPjRyOkIjfWikT+lDy5qGCLLsg2TbWnKoW6t0iB51hSS6bxI9ZC8pWzcgPrOTVEqi94WkdZ/peqXtZX6Sw/7KZ6TshEpJH1sp3V4krE9II9vTSJ8avS8iiXpFYb0tia4XkbURSaDrxcJ6WxJrGRk68NAQQgghg0B9oqX50s0wECGEEEIGAWvKpaq6GQYihBBCyIAjxzeaL7xqhgwYemrUyifoU3YepiR9aHCQ+5RF1ilJH1pmf/oUtyHRfiSN/Ejp3Aipoh8p2x8kfWhSeRGgtF62LMica89l5QgESf9asl9aVv5AFVm+giz7KtI5G1LW/qir6CvI8hVk2ddltZMLdVMyfdWkSeUmAHlsNbI9TdX2iqr7LMjaB7kkup5EtyfR9aSyEzgtRVRPkWobyHVS2RtcTWRIgkNECCGEkAEEYVBv78TWVXPTlTAQIYQQQgYBhBOtqpthINJBMCIph/IhSRhNDNKjmVJ+9DElMf2ikT40cd+UTyHpQyv2oRX7kegpCUkjP1Laj5Q1FRFk2QcV268rNdQNSofoUTeXRvZLUzp8X7JuQHxmJ2mQpmy/tO4zXa+0vcxXcti/zGd2QqUkj62WbK8grE9IotuTaJ8SuR/0vtD1YmG9LY2sVwBtBilkvaKw3pakbF3fGydEhjT60BFCCCGk3WTxUG/2ZbBVGd9RugYGIoQQQsgAk4UT5pRLVaF0KwxECCGEkEHAGumoqm6GgUiHwJSpzyvIzq+U5PSqnmLFgYuUnagpaT9SOschVt2/phUfWjIvQsv2FRT7kWg/EpkXoXMjdD273Zr0vLuUlSMQpNuQ0n2TsvIHqsjyFWTZV5HM2dCy9kddRV9Blq8gy74uq51cqJuS6StXdkKlJNHHVqLbk+j2JFabddX9FWRtfy6NrKeR7WlkPa3sBE7Ksg+SyLZ1+3qdVPYGl5agzx79IkMOHBpCCCGEDDDWHVOrqpthIEIIIYQMAr39KN0MA5EOgtFDNZIZCQcnqSxClpIU/WQ2SSm/QtqPlPShkT400XREqWI/UtKHljUNEWTZB+n2JWXD3aVD9JkfKYnum0QP35dJ+5Gy7KvImiIJ0vsiVtFXkET7lJTV0+1JSof9y3xmJ5SURB9bKd1eJKxPSbUnpZE+Nan9AGS9orA+Jcu+pgi0KSUoq2e3WZOmbJ1/4wxSyHpSQwH01sr9qKyam65kiBwiQgghhAxHGIgQQgghg4B1WW5VdTMMRAghhJABx5huaUK1yZ3uhIFIB8H0Kg5AUtnJl5KeppUqy3fQbUga+YlV9BWkcyOkpA+N9KGRPjRRXoSw05Jta8k5dy0rRyDIaidI9kvLzB9ISKL9SMrqla0rz9mIJWnGp5SuF6vYZp9QNyXTV67shErJOqZBGtmeRranke1ppM+CrH0QZNnnksi2dftl9bITOCldT0qTahvIdVrZm1xagkI9gV7nla8jQ4vs0BBCCCFkIMm+P5qX5VZV9q9rYSBCCCGEDALWlEtVdTMMRDoEhgitnS+nXzRidNRPJ6RV821J+tDSfiTaj6QwJVGqoq8g7UdKT0lISTuNbFsjh7o1pUP0eVuQ1Z8gOVzfjCxfQZZ9FVlTJEFyPxRV9BVk+Qqy7IM0sj1N6bB/mc/shArSlB5b0V5BeVumRHtaEu1TIveD3hel9Yw264rrSRVAm0GKsnp2u40VAb9SAqtuFUXgd8jYtsHESkKtqm5GHy5CCCGEkEGDgQghhBAyCFhTLlXVzTAQIYQQQgaYLJwwk1CrCqVbYSCS88wzz7h99tnHrbbaam7xxRd3a6+9tjv++OPdRx99lFu0mezEkvkgQXKaVqss3wEHMsiqGyR9FBX7kZJ5EVraj0T7kRT8ZB1MSdtK6fal9Ly7lMwV0LLaCZL90si8AU3ZugHxOSLray6N3A+a1n2m68n2Csp8JSV8FpSdUClZxzRIotuT6PYkuj2J9hnJ2v4gyz6XJtU2KKuXncBJyXpaEtm2br9sXfYGl5Yi6SOjbF32R29riFALJ1or3cwQOkSd4/7773ebbLKJu/zyy90MM8zgVl11Vffxxx+7008/3W2xxRbugw8+yC0JIYQQ0k6GfSAyfvx4t+eee/rA4+ijj3YXXXSRO+mkk9y1117rVl99dff444+7Y489NrcmhBBCWsOacqmqgaBdMwEvvPCCW3DBBUv19ttv59ZFhn0gcuWVV7qXXnrJrbjiim7jjTfOlzo3ZswYd+SRR7qxY8e6Sy65xL3//vv5mvZhjI5mB6S3RLUDZkn60EgfmthHb1LSR1GxHynLV5CcjtBTEtpWotuX6OFuiR6i121I6b5J6SH7qrJ8BVn2VSSnSrT0vohV9BVk+Qqy7Ouy2qlJUjrsr3xK5JC8HpbXx1ai24uU2Sal2ouF9bY0qf0ASuuZ7QbFbUplJ3BagkI9gd1mYxWA3yCFVb+KIvC7lKBh3UEGsYSVhFpduaM20c6ZgIceesi/zjfffG6DDTYwNemkk3obiw4fms5zww03+FdEgpppp53WLbfccn7U5JZbbsmXEkIIIV9c2j0TEAKRbbbZxv3mN78xNfnkk3sbi2EfiGCHAwwdWcw///z+9bHHHvOvhBBCSCv09qO0k3bPBDz88MP+dbHFFvOvzTLsA5HXXnvNv84000z+VYMhK/D666/7V0IIIaR5snCiMN1SXajfLto9E4ARkdGjR7sFFlggX9Icwz4Q+eSTT/wrIkGLsBxDWANBWb4DDo6UNeUbpP3EKvoKknkRGulDk/KhZeVDBFn2QbJtLTnnrqVzBaR0GxLdN4nOHZCUrRsQnyOybRGS6H0had1nul5pe5mfpJTPSNkJlZJ1TIPMdnJpZHsa2Z6m3GeJRL2isN6WRNeLyNqIJND1YmG9LU3ZuigPREnW05KUrcv+6NNSpH1kO0b/EXYAK8CoqnbSzpmAl19+2b3zzjvu//7v/9yFF17o806WWmopH8z86Ec/cg888EBumcY4lMOLkSNH5j+V0+4TgRBCCOkE7ZwJCPkhTzzxhDvqqKN8LsjXvvY1P72DnJMtt9zSTwWV0ZN9wA7rT1hEbe+++6678cYb3SyzzJIvrfPHP/7RHXHEEX4eDUk9/WXZZZd17733nhvd2+NmnDBGf4EZEAaijdhnySlU0vjA96tdpLcP33gHk9bbK9mG/NVkSG3fwL9VDcjxbINPa/Sm3wzGsa3YRqlZG/v57LjP3WfZrpx66qndnXfemS8dWDBCgA/riRN73fjxE/OlzTN69Ag3YkSPH6Wfd95586WN2Xzzzf1VMJKFF144689Ed/vtt7vpppsuX1oHyas///nP3brrrutOPPHEfKnNCSec4E477TQ3zzzz+FeMjAD4/+1vf+svB8YVMwhG5phjDr9OM+wDEVxWhGGqiy++2F9HrUG27+9+9zv3gx/8wO2999750tZZYokl3Keffpr/RgghZLDBh/l9992X/zawhECkU+y2225u9913z3+rgaRS5IA0CkTWWWcdfzVNGZ9//rl75ZVX/EiI5WuXXXbxOSk77bST23ffffOlMcM+EMHNXHAdNTKFN91003xpnbATjzvuOLfeeuvlS1sHN47BjV0QIc4+++z5UkIIIQPNiy++6D777DP/gRkSNgean/zkJ/7GYe0Anx3IV2zms8MaERnMmQB8yT/ooIN8m/BrMewDkSuuuMKfKLiZyxlnnJEvrYEEHFxTPWHCBH/ArGiPEEII+SIxmDMBuPJmxx139O2gPYthn6y65pprutlmm80HGhdccEG+1PnpkwMPPNBHn4goGYQQQgjpBsLVMkgwtXjyySf9a+qqGskxxxzjp35SV9hg2gZYIy+BYR+IYK4QOxKvhxxyiJ/P22OPPdxaa63lrrvuOj+Xttdee+XWhBBCyBcbzACAa665xr9KMBNwxx13+PSB5ZdfPl+a5sEHH/R+rrrqqnxJzN///nf/uvLKK/tXi2EfiIBlllnGDxkhMQfXRGN0ZMopp/RJPuecc07prWkJIYSQLxKtzAQgufWpp57yws+Brbbayr+eddZZPvk1gJSGX/3qV/7qJFxJ861vfStfU2TY54gQQgghw4277rrLX8mC4GPRRRf1CbD33nuvv3cIZgKQWCq/hCPRd4011vA/Y7ZAJswedthh7s9//rPr6enxV4bi/iQYKcFt5HFPEnyhL7vkmIEIIYQQMgxBwuopp5ziRy3C1Tjf+MY33A477OCmmGKK3KpGWSACrr76anfuuef6584guEFOCOx33nnnhjmWDEQIIYQQ0jGYI0IIIYSQjsFAhBBCCCEdg4EIIYQQQjoGAxFCCCGEdAwGIoQQQgjpGAxECCGEENIxGIgQQgghpGMwECGEEEJIx+ANzQaZZ555xv2///f/3H//+1/31ltvuZlnntnfyQ53n+Mzbarxt7/9zV1yySXu0UcfdZ988ombfvrp/cOZsA/nmWee3KrGT3/6U3fZZZflvxXZeuut3cEHH5z/Nrz5z3/+47bbbrv8tyJjx471t4CW4EFXuBX0008/7Z8tsdBCC7ltt93WP7eJ1Fh99dX9ra4bseyyy7o//elP/ueTTjrJv0+kwEPLzjjjjPy34cmzzz7rNtpoI7fZZpv556NY3Hbbbf5x9nivwN0+8f6wxRZbuG9/+9v+duSazz//3P3lL39xF154ofc/atQo9+Uvf9l9//vfd1/72tdyK9JuGIgMIvfff79/o8etdHE/fgQh99xzj3vjjTfcAgss4M477zz/sD1ig1N1n332cVdccYUbPXq0fx4Cbh2MNxm80U822WTutNNOi54Yuf766/tHXa+33npuxIjiAODXv/51/2ZGnDvzzDP9Q6rwxouHVGnwNM4jjjgi/815W9RBgLLccsu5cePG+VtF44FYu+66q/vxj3+cWw5vjjzySPf222/nv8VMnDjR/fOf//RB3Pe+9z0fOIMf/OAH/oFkq622WuFW22CRRRbx9sOVN9980we8eAAbXq1ABLcbP/TQQ/17Bc5PvCLYxpcX/M3jqesSHAu8v1x55ZVu6qmn9oHhu+++67804r0Hz1NB0EMGAAQiZODJ3qR7szeV3izg6L300kvzpb292R9F7y677OKXH3LIIflSYnHZZZf5/ZQFD72PPfZYvrS3N/sW03vcccf5dSussELvRx995JdnAV/vwgsv3Lviiiv630k5e+21l9+HN998c74kza233uptcU5nQWC+tLf3kUce6c3e9P26//3vf/lSkiKct9kXFH8eB3DO4tzFOUxiHn744d611lrL7zfo8MMPz9fUyQKU3oUWWqj3q1/9qj8nAzhX11xzTV8vCzjypTUuuugiv3zjjTfuzQKQfGlv72233dabBede8lwn7YM5IoMEomx8a8/eYFx2oudLnRszZoz/xoRvlZhueP/99/M1RIP9A37yk5/4EaTAyJEj3Z577unmn39+/00Jw7EAIyX4pomRE9KYhx56yL9W2V+nn366f82CFzfrrLP6nwGmZnAsAB4LTtJkwZyfXsGo3rHHHuvPY4Cnn2KUFE8rxSgfqfHee++5X//61/7x9M8991zhoWsSTMdghGPHHXf052QA52qYitXnZ5jqOuigg/yISAAjrBjJ/uyzz/wTZkn7YSAySNxwww3+de211/avkmmnndYPHWJI+5ZbbsmXEs1UU03l35y/8pWv5EvqYL537rnn9j/jjRw088E63Pnwww/9m/tss83mz8cyYHv33Xf7oW7kP2hwjuN43Hzzzf7DgBTBNNYvf/lLP+T/85//3Oc5BXje2iAX6fe//70P3DAFWzalimktYL3frrDCCv695IEHHvBfXMCTTz7pXnjhBf/I+qWXXtovk6y77rr+NbyPk/bCQGSQwOOWwYILLuhfNfg2Dx577DH/SoogeQ/JkXPMMUe+pA5GPsIbOB4/DcLv+KaJURTMty+++OI+XwTffvANh9R45JFH/IfiXHPN5U499VS3wQYb+DwmjODtu+++Psk6gHl57G8ELVaCNT4ovvSlL/lcqOeffz5fSiTIrUHghw/Fb37zm/nSGuG8xYclgpS11lrL5+3g9Te/+Y374IMP/PrhBnLqkEODx81bAXAAwQVycpDTFL6cSPB+EJLaw/tto/fn+eabzwfXOGZ832g/DEQGiddee82/zjTTTP5Vg0gchG/zpDmQ6IupL3ybD9nt4Q39hBNO8EnBiy66qE/yw4fjcccd55Pc8GFJ6vsK01qYdplxxhn9KB34+9//7jbZZBN3xx13+N8bncsgnM+YYiAxCCTwzR7svffe/lUSjsUf/vAHd+211/ovKUsuuaT/gMWUA674GI7vE0gURYIuprPLCOcnzkHryhigz89QB+e9BYIaBIYIwHG1I2kvDEQGCWRqg9QfUVjOD8bmuf322/0VHAAjH5hXx7cWfHMHyGO47rrr3CmnnOIuuOACf/kvvuH873//c0cffbS3Ge6EDz8MS2Nf4Rv7b3/7Wz8UjUuccV4i9wPTMuEcLctfwBs34Plc5Pzzz/f7EZfgYqRD8/DDD/vXLbfc0t10001+hAqX9eLqmq9+9av+stIDDjjA25Ai4b22yvn50Ucf+Vee052FgcggERLRGoHhcVIdfFDusssufs59q6226ru8Dm8aCFCQJIz18tJdDMuGS/dwzwB8KAx3cFkuPujwjTt8WwSTTDKJvzRy4YUX9sPdGB2pei4D5ojE4Bt1uFcILnG2wDmL/XzIIYf4/R/ACBSmZvBhiVyyEGiTGOsy/RTh/ZbndGdhIDJIhLn01PwibrYDcPUMqQbe0H/0ox/5fbfNNtsUbkyGoVSMfFggERBzzriBEfIjhjv4wMN8unXPCrxJ49s7QIJfOJfDOWsRznOezzG4zwqmVXBeIgfHAscAuQrWtALynzC9CHAsSJFWzk+e052FgcggEeYeU3PmYc43NUdJ6iB4QNBx+OGH+28nmI7BJXep+eAUIamVQ62NCfsKw94hN6Qs/4Pnsw1GncC3vvUt/9oKPG/LCednuCLGQp+fjc5pBCi4fBijLXLEkLQHBiKDRMjGxl0+LXD5GEhlbZMaeEPAXSdxC2bk1SARFbd21+DyUmTY4/4MKV555RX/Gt7YhyuY1kJgh9GlVCKe3Ff4No9bX+NyR2uED1M48IMphDnnnDNfSgByPoC+UiaA9wHkf6RuWQ543pYzzTTT+MACQTPOUQ2mx/BIAhDuRxTed8P7sCYsx1VlIVeEtA8GIoNEGNq+5ppr/KvknXfe8Vck4ASXtycnMXgDwYcl5sdxiSimZsL1/RqMlOAZM7CxLnfErZ5fffVVf4OjcOn0cAXTMtinuEIDiaoaBCq4bBqsvPLK/jzFlUlYbt1XAZdXYu4dts3MvXc7+BaOIALfqK1L0AGC60svvdTfvA9JqRosQ5I1pgeWWWaZfCnRlL3f4kZyeE/AVXRhRAQBBqYmX375ZXPKK4xk4RYApP0wEBkk1lxzTX/fBdxoB1duBPANH99+MMyKOwbiA5bY4CZG+MDEmzBuboR7gqTA1QX4toNvRfiGKYexMSq1//77+5932223pqd0uhEk+gKMIOGOtAGcnz/72c/8/RPw7I0QKOPSZ4CrjrAugLonnnii/9kaqRrO4FlTwLpSJoC7ha6yyir+Z5yj8hk1CJz32GMPH5DvsMMOZj4PqYHzGaN2eM8I+x0g0MAzYwCS2CXhnMY0rxwZRNI73m8QsG+//fb5UtJO+NC7QeSuu+5yO+20k39zRzSONx08zRTflJA8iZPdukEUqd3eGd9yEFDggWxlb+YbbrihW2mllfxwKt5c8KaCO1ciORCBCaZtcBfb1MOyhiPIu8FD6jAqgjfwpZZayt+TBfdfwVw7rjTC+Snnx3FnUNy/JYyQ4AMSI3vYt8jbYSASg/uCHHXUUe473/mOfxhbCrwfIPkaox94CCaOBUCiK9478GRj3AcHx2k4c/LJJ/tL8lN/x7hXC24Jj/2EIBrnKc5PvIfgCbw4fyUYRcWVTBjlQ5CH++hg5ATvF/iYhC/c6I+0n5G/yMh/JgMMRkTWWGMN/y0H3xzxzRxv7LhPA/4o+A0nzb///W9//w+AJ2LiTogpIcjDDaAwuoSkQHww4mZnuD8DpsHwxo5RkrJH3g83kISHvAVcSYTAA+cn7qaKuXacnxj5wNy7BN/cMbWF6QYMZ+O8xr7HN0o+pbQIPuDwobbCCit4pcCXETyPCtNaGAXBeYsbbuESaoyI4L44nPKqBWYQvmBgGlCDe+LgCiPsO5yfGA1BQI2byCHPTI+E4ncEebja7sUXX/R1cJ8RPFICzwPjtMzAwRERQgghhHQM5ogQQgghpGMwECGEEEJIx2AgQgghhJCOwUCEEEIIIR2DgQghhBBCOgYDEUIIIYR0DAYihBBCCOkYDEQIIYQQ0jEYiBBCCCGkYzAQIaTLwfN1cMvqAJ7uiseeW7fFJoSQwYaBCCFdzOWXX+6fn4EniBJCyFCEgQghXczxxx/vH/olWWuttdxVV13l/vznP+dLCCGkczAQIWSYgUfLzzvvvG7OOefMlxBCSOdgIEIIIYSQjtHTm5H/TAjpEk4++WR3yimn5L/V2W233dxss83mDjjgADfTTDO5m2++OV/j3DbbbOPuvPNOd/bZZ7spppjCnXbaae6ee+5xn332mZt77rnddttt5zbaaCOHt4xLLrnEnX/++e7pp592I0eOdEsssYTbY4893JJLLpl7i7n22mvdRRdd5B544AH3wQcfuGmnndYtu+yy7nvf+55bdNFFcytCyHCEIyKEdCGzzDKLW3rppd0kk0zif59rrrn871jeiH/+859uyy23dP/5z3/crLPO6iaddFL38MMPu5/+9KfuvPPOc/vuu6876KCD3KuvvuoDFAQqt956qw9kHn300dxLjc8//9zts88+7kc/+pG76aabXE9Pj79iZ9y4ce6KK65wm222GXNVCBnmMBAhpAv59re/7UcsZphhBv/797//ff87ljfiwgsvdGussYYfLfnrX//qX7/+9a/7dYcddpi75ppr3K9+9St32223+fVXX321D3AQXJxzzjneLnDiiSf6K3dmnnlm9/vf/97X+ctf/uJfEcwgMDn88MN9IEMIGZ4wECGEREwzzTTu6KOP9kmtACMiO+ywg/954sSJbqeddnIbbrih/x1gqicEOA899JB/BW+++ab7wx/+4H8+9dRT3UorreR/BpjOwQjK9ttv76d6TjjhhHwNIWS4wUCEEBKx3HLLubFjx+a/1UCwEVhllVXyn+rMOOOM/vXDDz/0rwAjKRglmW+++ZJ5ICGguf/++91bb73lfyaEDC8YiBBCIjCNohk9enT+k3PTTTdd/lOdUaNG5T/VeeKJJ/wrckmQc2Lp4IMP9jYAia+EkOEHAxFCSMRkk02W/2SDvI4q4OoYgFESXH1j6d577/U24P33389/IoQMJxiIEEIGhBDQ4Bbzjz32WEMhQZYQMvxgIEIIGRBwaS8IUzQWeCAf7l3ywgsvuAkTJuRLCSHDCQYihHQxYRqlE/ctRFIrro5B7kfq8lxcVYOrZ5C0iqCEEDL8YCBCSBcTrn556aWX/OtggittcMMysPfee7vrr7/e/wxwGfDFF1/cd/fXrbfe2t/NlRAy/GAgQkgXs8gii/hX3EwMt2fH/TwGk5/97GdutdVWc++++6774Q9/6O8lgnuOrLjiiv6GZrjzKnJI9txzz7wGIWS4wUCEkC4Gt2XHBz0SR5955hn31FNP5WsGB9wMDc+sOf74430QMn78ePfII4/4fBDcr+SYY47xNzPDFA4hZHjCh94RQgghpGNwRIQQQgghHYOBCCGEEEI6BgMRQgghhHQMBiKEEEII6RgMRAghhBDSMRiIEEIIIaRjMBAhhBBCSMdgIEIIIYSQjsFAhBBCCCEdg4EIIYQQQjqEc/8fGj9mb8u0TLgAAAAASUVORK5CYII=;" vertex="1" parent="1">
          <mxGeometry x="380" y="120" width="398" height="320" as="geometry" />
        </mxCell>
        <mxCell id="Fy2nvLqnIeT0QVQOjHZ0-15" value="" style="group" vertex="1" connectable="0" parent="1">
          <mxGeometry x="90" y="350" width="265" height="50" as="geometry" />
        </mxCell>
        <mxCell id="Fy2nvLqnIeT0QVQOjHZ0-16" value="" style="html=1;verticalLabelPosition=bottom;labelBackgroundColor=#ffffff;verticalAlign=top;shadow=0;dashed=0;strokeWidth=1;shape=mxgraph.ios7ui.slider;barPos=73.58;strokeColor=#0080f0;strokeColor2=#a0a0a0;" vertex="1" parent="Fy2nvLqnIeT0QVQOjHZ0-15">
          <mxGeometry y="20" width="265" height="30" as="geometry" />
        </mxCell>
        <mxCell id="Fy2nvLqnIeT0QVQOjHZ0-17" value="wh (fixed)" style="text;html=1;align=center;verticalAlign=middle;whiteSpace=wrap;rounded=0;horizontal=1;" vertex="1" parent="Fy2nvLqnIeT0QVQOjHZ0-15">
          <mxGeometry width="60" height="30" as="geometry" />
        </mxCell>
        <mxCell id="Fy2nvLqnIeT0QVQOjHZ0-25" value="" style="group" vertex="1" connectable="0" parent="1">
          <mxGeometry x="90" y="130" width="265" height="50" as="geometry" />
        </mxCell>
        <mxCell id="Fy2nvLqnIeT0QVQOjHZ0-26" value="" style="html=1;verticalLabelPosition=bottom;labelBackgroundColor=#ffffff;verticalAlign=top;shadow=0;dashed=0;strokeWidth=1;shape=mxgraph.ios7ui.slider;barPos=73.96;strokeColor=#0080f0;strokeColor2=#a0a0a0;" vertex="1" parent="Fy2nvLqnIeT0QVQOjHZ0-25">
          <mxGeometry y="20" width="265" height="30" as="geometry" />
        </mxCell>
        <mxCell id="Fy2nvLqnIeT0QVQOjHZ0-27" value="$$d$$" style="text;html=1;align=center;verticalAlign=middle;whiteSpace=wrap;rounded=0;horizontal=1;" vertex="1" parent="Fy2nvLqnIeT0QVQOjHZ0-25">
          <mxGeometry width="60" height="30" as="geometry" />
        </mxCell>
        <mxCell id="Fy2nvLqnIeT0QVQOjHZ0-33" value="" style="group" vertex="1" connectable="0" parent="1">
          <mxGeometry x="90" y="200" width="265" height="106" as="geometry" />
        </mxCell>
        <mxCell id="Fy2nvLqnIeT0QVQOjHZ0-7" value="" style="group" vertex="1" connectable="0" parent="Fy2nvLqnIeT0QVQOjHZ0-33">
          <mxGeometry width="265" height="50" as="geometry" />
        </mxCell>
        <mxCell id="Fy2nvLqnIeT0QVQOjHZ0-5" value="" style="html=1;verticalLabelPosition=bottom;labelBackgroundColor=#ffffff;verticalAlign=top;shadow=0;dashed=0;strokeWidth=1;shape=mxgraph.ios7ui.slider;barPos=58.87;strokeColor=#0080f0;strokeColor2=#a0a0a0;" vertex="1" parent="Fy2nvLqnIeT0QVQOjHZ0-7">
          <mxGeometry y="20" width="265" height="30" as="geometry" />
        </mxCell>
        <mxCell id="Fy2nvLqnIeT0QVQOjHZ0-6" value="Health" style="text;html=1;align=center;verticalAlign=middle;whiteSpace=wrap;rounded=0;horizontal=1;" vertex="1" parent="Fy2nvLqnIeT0QVQOjHZ0-7">
          <mxGeometry width="60" height="30" as="geometry" />
        </mxCell>
        <mxCell id="Fy2nvLqnIeT0QVQOjHZ0-8" value="" style="group" vertex="1" connectable="0" parent="Fy2nvLqnIeT0QVQOjHZ0-33">
          <mxGeometry y="56" width="265" height="50" as="geometry" />
        </mxCell>
        <mxCell id="Fy2nvLqnIeT0QVQOjHZ0-9" value="" style="html=1;verticalLabelPosition=bottom;labelBackgroundColor=#ffffff;verticalAlign=top;shadow=0;dashed=0;strokeWidth=1;shape=mxgraph.ios7ui.slider;barPos=36.23;strokeColor=#0080f0;strokeColor2=#a0a0a0;" vertex="1" parent="Fy2nvLqnIeT0QVQOjHZ0-8">
          <mxGeometry y="20" width="265" height="30" as="geometry" />
        </mxCell>
        <mxCell id="Fy2nvLqnIeT0QVQOjHZ0-10" value="Time" style="text;html=1;align=center;verticalAlign=middle;whiteSpace=wrap;rounded=0;horizontal=1;" vertex="1" parent="Fy2nvLqnIeT0QVQOjHZ0-8">
          <mxGeometry width="60" height="30" as="geometry" />
        </mxCell>
        <mxCell id="Fy2nvLqnIeT0QVQOjHZ0-28" value="" style="group" vertex="1" connectable="0" parent="1">
          <mxGeometry x="166" y="460" width="110" height="60" as="geometry" />
        </mxCell>
        <mxCell id="Fy2nvLqnIeT0QVQOjHZ0-21" value="" style="group" vertex="1" connectable="0" parent="Fy2nvLqnIeT0QVQOjHZ0-28">
          <mxGeometry width="110" height="30" as="geometry" />
        </mxCell>
        <mxCell id="Fy2nvLqnIeT0QVQOjHZ0-19" value="$$d_1^*$$" style="text;html=1;align=center;verticalAlign=middle;whiteSpace=wrap;rounded=0;" vertex="1" parent="Fy2nvLqnIeT0QVQOjHZ0-21">
          <mxGeometry width="60" height="30" as="geometry" />
        </mxCell>
        <mxCell id="Fy2nvLqnIeT0QVQOjHZ0-20" value="&lt;font color=&quot;#575757&quot;&gt;value&lt;/font&gt;" style="text;html=1;align=center;verticalAlign=middle;whiteSpace=wrap;rounded=0;" vertex="1" parent="Fy2nvLqnIeT0QVQOjHZ0-21">
          <mxGeometry x="50" width="60" height="30" as="geometry" />
        </mxCell>
        <mxCell id="Fy2nvLqnIeT0QVQOjHZ0-22" value="" style="group" vertex="1" connectable="0" parent="Fy2nvLqnIeT0QVQOjHZ0-28">
          <mxGeometry y="30" width="110" height="30" as="geometry" />
        </mxCell>
        <mxCell id="Fy2nvLqnIeT0QVQOjHZ0-23" value="$$d_2^*$$" style="text;html=1;align=center;verticalAlign=middle;whiteSpace=wrap;rounded=0;" vertex="1" parent="Fy2nvLqnIeT0QVQOjHZ0-22">
          <mxGeometry width="60" height="30" as="geometry" />
        </mxCell>
        <mxCell id="Fy2nvLqnIeT0QVQOjHZ0-24" value="&lt;font color=&quot;#575757&quot;&gt;value&lt;/font&gt;" style="text;html=1;align=center;verticalAlign=middle;whiteSpace=wrap;rounded=0;" vertex="1" parent="Fy2nvLqnIeT0QVQOjHZ0-22">
          <mxGeometry x="50" width="60" height="30" as="geometry" />
        </mxCell>
        <mxCell id="Fy2nvLqnIeT0QVQOjHZ0-35" value="" style="group" vertex="1" connectable="0" parent="1">
          <mxGeometry x="485" y="460" width="180" height="60" as="geometry" />
        </mxCell>
        <mxCell id="Fy2nvLqnIeT0QVQOjHZ0-36" value="" style="group" vertex="1" connectable="0" parent="Fy2nvLqnIeT0QVQOjHZ0-35">
          <mxGeometry width="180" height="30" as="geometry" />
        </mxCell>
        <mxCell id="Fy2nvLqnIeT0QVQOjHZ0-37" value="robot 1" style="text;html=1;align=center;verticalAlign=middle;whiteSpace=wrap;rounded=0;" vertex="1" parent="Fy2nvLqnIeT0QVQOjHZ0-36">
          <mxGeometry width="98.18181818181819" height="30" as="geometry" />
        </mxCell>
        <mxCell id="Fy2nvLqnIeT0QVQOjHZ0-38" value="&lt;font color=&quot;#575757&quot;&gt;recommendation&lt;/font&gt;" style="text;html=1;align=center;verticalAlign=middle;whiteSpace=wrap;rounded=0;" vertex="1" parent="Fy2nvLqnIeT0QVQOjHZ0-36">
          <mxGeometry x="81.81818181818183" width="98.18181818181819" height="30" as="geometry" />
        </mxCell>
        <mxCell id="Fy2nvLqnIeT0QVQOjHZ0-39" value="" style="group" vertex="1" connectable="0" parent="Fy2nvLqnIeT0QVQOjHZ0-35">
          <mxGeometry y="30" width="180" height="30" as="geometry" />
        </mxCell>
        <mxCell id="Fy2nvLqnIeT0QVQOjHZ0-40" value="robot 2" style="text;html=1;align=center;verticalAlign=middle;whiteSpace=wrap;rounded=0;" vertex="1" parent="Fy2nvLqnIeT0QVQOjHZ0-39">
          <mxGeometry width="98.18181818181819" height="30" as="geometry" />
        </mxCell>
        <mxCell id="Fy2nvLqnIeT0QVQOjHZ0-41" value="&lt;font color=&quot;#575757&quot;&gt;recommendation&lt;/font&gt;" style="text;html=1;align=center;verticalAlign=middle;whiteSpace=wrap;rounded=0;" vertex="1" parent="Fy2nvLqnIeT0QVQOjHZ0-39">
          <mxGeometry x="81.81818181818183" width="98.18181818181819" height="30" as="geometry" />
        </mxCell>
        <mxCell id="Fy2nvLqnIeT0QVQOjHZ0-45" value="" style="group" vertex="1" connectable="0" parent="1">
          <mxGeometry x="337" y="472" width="115" height="30" as="geometry" />
        </mxCell>
        <mxCell id="Fy2nvLqnIeT0QVQOjHZ0-43" value="$$\hat{d}$$" style="text;html=1;align=center;verticalAlign=middle;whiteSpace=wrap;rounded=0;" vertex="1" parent="Fy2nvLqnIeT0QVQOjHZ0-45">
          <mxGeometry width="60" height="30" as="geometry" />
        </mxCell>
        <mxCell id="Fy2nvLqnIeT0QVQOjHZ0-44" value="&lt;font color=&quot;#575757&quot;&gt;value&lt;/font&gt;" style="text;html=1;align=center;verticalAlign=middle;whiteSpace=wrap;rounded=0;" vertex="1" parent="Fy2nvLqnIeT0QVQOjHZ0-45">
          <mxGeometry x="55" width="60" height="30" as="geometry" />
        </mxCell>
      </root>
    </mxGraphModel>
  </diagram>
</mxfile>
